0
SECTION
2
HEADER
9
$INSUNITS
70
4
9
$ACADVER
1
AC1014
9
$HANDSEED
5
FFFF
0
ENDSEC
0
SECTION
2
TABLES
0
TABLE
2
VPORT
5
8
100
AcDbSymbolTable
0
ENDTAB
0
TABLE
2
LTYPE
5
5
100
AcDbSymbolTable
0
LTYPE
5
14
100
AcDbSymbolTableRecord
100
AcDbLinetypeTableRecord
2
BYBLOCK
70
0
0
LTYPE
5
15
100
AcDbSymbolTableRecord
100
AcDbLinetypeTableRecord
2
BYLAYER
70
0
0
ENDTAB
0
TABLE
2
LAYER
5
2
100
AcDbSymbolTable
70
2
0
LAYER
5
50
100
AcDbSymbolTableRecord
100
AcDbLayerTableRecord
2
0
70
0
6
CONTINUOUS
0
ENDTAB
0
TABLE
2
STYLE
5
3
100
AcDbSymbolTable
70
1
0
STYLE
5
11
100
AcDbSymbolTableRecord
100
AcDbTextStyleTableRecord
2
STANDARD
70
0
0
ENDTAB
0
TABLE
2
VIEW
5
6
100
AcDbSymbolTable
70
0
0
ENDTAB
0
TABLE
2
UCS
5
7
100
AcDbSymbolTable
70
0
0
ENDTAB
0
TABLE
2
APPID
5
9
100
AcDbSymbolTable
70
2
0
APPID
5
12
100
AcDbSymbolTableRecord
100
AcDbRegAppTableRecord
2
ACAD
70
0
0
ENDTAB
0
TABLE
2
DIMSTYLE
5
A
100
AcDbSymbolTable
70
1
0
ENDTAB
0
TABLE
2
BLOCK_RECORD
5
1
100
AcDbSymbolTable
70
1
0
BLOCK_RECORD
5
1F
100
AcDbSymbolTableRecord
100
AcDbBlockTableRecord
2
*MODEL_SPACE
0
BLOCK_RECORD
5
1B
100
AcDbSymbolTableRecord
100
AcDbBlockTableRecord
2
*PAPER_SPACE
0
ENDTAB
0
ENDSEC
0
SECTION
2
BLOCKS
0
BLOCK
5
20
100
AcDbEntity
100
AcDbBlockBegin
2
*MODEL_SPACE
0
ENDBLK
5
21
100
AcDbEntity
100
AcDbBlockEnd
0
BLOCK
5
1C
100
AcDbEntity
100
AcDbBlockBegin
2
*PAPER_SPACE
0
ENDBLK
5
1D
100
AcDbEntity
100
AcDbBlockEnd
0
ENDSEC
0
SECTION
2
ENTITIES
0
LWPOLYLINE
5
100
100
AcDbEntity
8
0
100
AcDbPolyline
90
6
70
1
43
0.0
10
95.910112274895326
20
206.17500000000001
10
95.91011227489534
20
246.506
10
121.8870017285347
20
246.506
10
121.8870017285347
20
262
10
146.99678611887714
20
262
10
146.99678611887714
20
206.17500000000001
0
LWPOLYLINE
5
101
100
AcDbEntity
8
0
100
AcDbPolyline
90
92
70
1
43
0.0
10
244.49999999999994
20
13.605890523785437
10
234.77452258243056
20
13.605890523785437
10
234.77452258243056
20
12.602983241715755
10
232.47452258243055
20
12.602983241715755
10
232.4745225824305
20
13.605890523785437
10
229.49996019889099
20
13.605890523785437
10
229.49996019889099
20
16.705890523785435
10
232.47452258243055
20
16.705890523785438
10
232.47452258243055
20
18.002983241715746
10
234.77452258243056
20
18.002983241715746
10
234.77452258243056
20
16.705890523785435
10
244.49999999999994
20
16.705890523785435
10
244.49999999999994
20
103.60589052378545
10
234.77452258243056
20
103.60589052378545
10
234.77452258243056
20
102.60298324171575
10
232.47452258243055
20
102.60298324171575
10
232.4745225824305
20
103.60589052378545
10
229.49996019889099
20
103.60589052378545
10
229.49996019889099
20
106.70589052378544
10
232.47452258243055
20
106.70589052378544
10
232.47452258243055
20
108.00298324171575
10
234.77452258243056
20
108.00298324171575
10
234.77452258243056
20
106.70589052378544
10
244.49999999999994
20
106.70589052378544
10
244.49999999999994
20
203.60589052378543
10
234.77452258243056
20
203.60589052378543
10
234.77452258243056
20
202.60298324171575
10
232.47452258243055
20
202.60298324171575
10
232.4745225824305
20
203.60589052378543
10
229.49996019889099
20
203.60589052378543
10
229.49996019889099
20
206.70589052378546
10
232.47452258243055
20
206.70589052378546
10
232.47452258243055
20
208.00298324171575
10
234.77452258243056
20
208.00298324171575
10
234.77452258243056
20
206.70589052378546
10
244.49999999999994
20
206.70589052378546
10
244.49999999999994
20
283.60589052378543
10
234.77452258243056
20
283.60589052378543
10
234.77452258243056
20
282.60298324171578
10
232.47452258243055
20
282.60298324171578
10
232.4745225824305
20
283.60589052378543
10
229.49996019889099
20
283.60589052378543
10
229.49996019889099
20
286.70589052378546
10
232.47452258243055
20
286.70589052378546
10
232.47452258243055
20
288.00298324171575
10
234.77452258243056
20
288.00298324171575
10
234.77452258243056
20
286.70589052378546
10
244.49999999999994
20
286.70589052378546
10
244.49999999999994
20
300
10
0.88703980110896197
20
300
10
0.8870398011089573
20
286.70589052378546
10
10.525437616460525
20
286.70589052378546
10
10.525437616460525
20
288.00298324171575
10
12.825437616460494
20
288.00298324171575
10
12.825437616460494
20
286.70589052378546
10
15.887039801108958
20
286.70589052378546
10
15.887039801108958
20
283.60589052378543
10
12.825437616460494
20
283.60589052378543
10
12.825437616460494
20
282.60298324171578
10
10.525437616460525
20
282.60298324171578
10
10.525437616460525
20
283.60589052378543
10
0.88703980110896197
20
283.60589052378543
10
0.8870398011089573
20
206.70589052378546
10
10.185354547081605
20
206.70589052378546
10
10.185354547081605
20
203.60589052378543
10
0.88703980110896197
20
203.60589052378543
10
0.8870398011089573
20
106.70589052378544
10
10.525437616460525
20
106.70589052378544
10
10.525437616460525
20
108.00298324171575
10
12.825437616460494
20
108.00298324171575
10
12.825437616460494
20
106.70589052378544
10
15.887039801108958
20
106.70589052378544
10
15.887039801108958
20
103.60589052378545
10
12.825437616460494
20
103.60589052378545
10
12.825437616460494
20
102.60298324171575
10
10.525437616460525
20
102.60298324171575
10
10.525437616460525
20
103.60589052378545
10
0.88703980110896197
20
103.60589052378543
10
0.8870398011089573
20
16.705890523785438
10
10.525437616460525
20
16.705890523785438
10
10.525437616460525
20
18.002983241715746
10
12.825437616460494
20
18.002983241715746
10
12.825437616460494
20
16.705890523785435
10
15.887039801108958
20
16.705890523785435
10
15.887039801108958
20
13.605890523785437
10
12.825437616460494
20
13.605890523785437
10
12.825437616460494
20
12.602983241715755
10
10.525437616460525
20
12.602983241715755
10
10.525437616460525
20
13.605890523785437
10
0.88703618012679897
20
13.605890523785433
10
0.8870398011089573
20
0
10
244.49999999999994
20
0
0
LWPOLYLINE
5
102
100
AcDbEntity
8
0
100
AcDbPolyline
90
8
70
1
43
0.0
10
12.825437616460494
20
206.70589052378546
10
15.887039801108958
20
206.70589052378546
10
15.887039801108958
20
203.60589052378543
10
12.825437616460494
20
203.60589052378543
10
12.825437616460494
20
202.60298324171575
10
10.525437616460525
20
202.60298324171575
10
10.525437616460525
20
208.00298324171575
10
12.825437616460494
20
208.00298324171575
0
ENDSEC
0
SECTION
2
OBJECTS
0
DICTIONARY
5
C
100
AcDbDictionary
3
ACAD_GROUP
350
D
3
ACAD_MLINESTYLE
350
17
0
DICTIONARY
5
D
100
AcDbDictionary
0
DICTIONARY
5
1A
330
C
100
AcDbDictionary
0
DICTIONARY
5
17
100
AcDbDictionary
0
ENDSEC
0
EOF
