0
SECTION
2
HEADER
9
$INSUNITS
70
4
9
$ACADVER
1
AC1014
9
$HANDSEED
5
FFFF
0
ENDSEC
0
SECTION
2
TABLES
0
TABLE
2
VPORT
5
8
100
AcDbSymbolTable
0
ENDTAB
0
TABLE
2
LTYPE
5
5
100
AcDbSymbolTable
0
LTYPE
5
14
100
AcDbSymbolTableRecord
100
AcDbLinetypeTableRecord
2
BYBLOCK
70
0
0
LTYPE
5
15
100
AcDbSymbolTableRecord
100
AcDbLinetypeTableRecord
2
BYLAYER
70
0
0
ENDTAB
0
TABLE
2
LAYER
5
2
100
AcDbSymbolTable
70
2
0
LAYER
5
50
100
AcDbSymbolTableRecord
100
AcDbLayerTableRecord
2
0
70
0
6
CONTINUOUS
0
ENDTAB
0
TABLE
2
STYLE
5
3
100
AcDbSymbolTable
70
1
0
STYLE
5
11
100
AcDbSymbolTableRecord
100
AcDbTextStyleTableRecord
2
STANDARD
70
0
0
ENDTAB
0
TABLE
2
VIEW
5
6
100
AcDbSymbolTable
70
0
0
ENDTAB
0
TABLE
2
UCS
5
7
100
AcDbSymbolTable
70
0
0
ENDTAB
0
TABLE
2
APPID
5
9
100
AcDbSymbolTable
70
2
0
APPID
5
12
100
AcDbSymbolTableRecord
100
AcDbRegAppTableRecord
2
ACAD
70
0
0
ENDTAB
0
TABLE
2
DIMSTYLE
5
A
100
AcDbSymbolTable
70
1
0
ENDTAB
0
TABLE
2
BLOCK_RECORD
5
1
100
AcDbSymbolTable
70
1
0
BLOCK_RECORD
5
1F
100
AcDbSymbolTableRecord
100
AcDbBlockTableRecord
2
*MODEL_SPACE
0
BLOCK_RECORD
5
1B
100
AcDbSymbolTableRecord
100
AcDbBlockTableRecord
2
*PAPER_SPACE
0
ENDTAB
0
ENDSEC
0
SECTION
2
BLOCKS
0
BLOCK
5
20
100
AcDbEntity
100
AcDbBlockBegin
2
*MODEL_SPACE
0
ENDBLK
5
21
100
AcDbEntity
100
AcDbBlockEnd
0
BLOCK
5
1C
100
AcDbEntity
100
AcDbBlockBegin
2
*PAPER_SPACE
0
ENDBLK
5
1D
100
AcDbEntity
100
AcDbBlockEnd
0
ENDSEC
0
SECTION
2
ENTITIES
0
CIRCLE
5
100
100
AcDbEntity
8
0
100
AcDbCircle
10
-185.38703980110898
20
215.65000000000001
30
0
40
1.4999999999999858
210
0
220
-0
230
1
0
CIRCLE
5
101
100
AcDbEntity
8
0
100
AcDbCircle
10
-175.38703980110898
20
215.65584940182163
30
0
40
1.4999999999999858
210
0
220
-0
230
1
0
CIRCLE
5
102
100
AcDbEntity
8
0
100
AcDbCircle
10
-175.38703980110898
20
39.268772425721693
30
0
40
1.4999999999999858
210
0
220
-0
230
1
0
CIRCLE
5
103
100
AcDbEntity
8
0
100
AcDbCircle
10
-185.38703980110898
20
87.068772425721676
30
0
40
1.4999999999999858
210
0
220
-0
230
1
0
CIRCLE
5
104
100
AcDbEntity
8
0
100
AcDbCircle
10
-175.38703980110898
20
87.074621827543282
30
0
40
1.4999999999999858
210
0
220
-0
230
1
0
CIRCLE
5
105
100
AcDbEntity
8
0
100
AcDbCircle
10
-62.387039801108983
20
87.068772425721676
30
0
40
1.4999999999999858
210
0
220
-0
230
1
0
CIRCLE
5
106
100
AcDbEntity
8
0
100
AcDbCircle
10
-52.387039801108983
20
87.074621827543282
30
0
40
1.4999999999999858
210
0
220
-0
230
1
0
CIRCLE
5
107
100
AcDbEntity
8
0
100
AcDbCircle
10
-62.387039801108983
20
39.268772425721693
30
0
40
1.4999999999999858
210
0
220
-0
230
1
0
LWPOLYLINE
5
108
100
AcDbEntity
8
0
100
AcDbPolyline
90
10
70
1
43
0.0
10
-54.887039801108948
20
40.918772425721684
10
-54.887039801108983
20
35.268772425721707
10
-59.887039801108983
20
35.268772425721707
10
-59.887039801108983
20
40.918772425721684
42
0.41421356237310542
10
-61.887039801108976
20
42.918772425721684
10
-67.387039801108983
20
42.918772425721684
10
-67.387039801109012
20
83.249999999999943
10
-47.387039801108997
20
83.249999999999943
10
-47.387039801108983
20
42.918772425721684
10
-52.88703980110899
20
42.918772425721642
42
0.41421356237310542
0
LWPOLYLINE
5
109
100
AcDbEntity
8
0
100
AcDbPolyline
90
10
70
1
43
0.0
10
-177.88703980110895
20
40.918772425721684
10
-177.88703980110898
20
35.268772425721707
10
-182.88703980110898
20
35.268772425721707
10
-182.88703980110898
20
40.918772425721684
42
0.41421356237310542
10
-184.88703980110898
20
42.918772425721684
10
-190.38703980110898
20
42.918772425721684
10
-190.38703980110898
20
83.249999999999943
10
-170.38703980110898
20
83.249999999999943
10
-170.38703980110898
20
42.918772425721684
10
-175.88703980110898
20
42.918772425721642
42
0.41421356237310542
0
CIRCLE
5
110
100
AcDbEntity
8
0
100
AcDbCircle
10
-52.387039801108983
20
215.65584940182163
30
0
40
1.4999999999999858
210
0
220
-0
230
1
0
CIRCLE
5
111
100
AcDbEntity
8
0
100
AcDbCircle
10
-62.387039801108983
20
215.65000000000001
30
0
40
1.4999999999999858
210
0
220
-0
230
1
0
LWPOLYLINE
5
112
100
AcDbEntity
8
0
100
AcDbPolyline
90
10
70
1
43
0.0
10
-54.887039801108948
20
169.50000000000003
10
-54.887039801108983
20
163.85000000000005
10
-59.887039801108983
20
163.85000000000005
10
-59.887039801108983
20
169.50000000000003
42
0.41421356237310542
10
-61.887039801108976
20
171.50000000000003
10
-67.387039801109012
20
171.50000000000003
10
-67.387039801109012
20
212.00000000000003
10
-47.387039801108997
20
212.00000000000003
10
-47.387039801108997
20
171.50000000000003
10
-52.88703980110899
20
171.5
42
0.41421356237310542
0
CIRCLE
5
113
100
AcDbEntity
8
0
100
AcDbCircle
10
-52.387039801108983
20
167.85000000000002
30
0
40
1.4999999999999858
210
0
220
-0
230
1
0
LWPOLYLINE
5
114
100
AcDbEntity
8
0
100
AcDbPolyline
90
4
70
1
43
0.0
10
150.28800000000004
20
-171.50000000000003
10
150.28800000000004
20
266.5
10
-249.50000000000003
20
266.5
10
-249.50000000000003
20
-171.50000000000003
0
LWPOLYLINE
5
115
100
AcDbEntity
8
0
100
AcDbPolyline
90
8
70
1
43
0.0
10
-18.88703980110899
20
-73.457999999999984
10
-18.887039801109005
20
-136
42
-0.41421356237309481
10
-33.887039801108997
20
-151
10
-208
20
-150.99999999999997
42
-0.41421356237309642
10
-223
20
-135.99999999999997
10
-223
20
-73.457999999999998
42
-0.41421356237309642
10
-208
20
-58.457999999999998
10
-33.887039801108969
20
-58.458000000000006
42
-0.41421356237309537
0
CIRCLE
5
116
100
AcDbEntity
8
0
100
AcDbCircle
10
79.291019572272603
20
-53.716237151017779
30
0
40
15
210
0
220
-0
230
1
0
LWPOLYLINE
5
117
100
AcDbEntity
8
0
100
AcDbPolyline
90
4
70
1
43
0.0
10
-95.63320743527197
20
-16.865696107601845
10
-95.63320743527197
20
-24.865696107601853
10
-98.63320743527197
20
-24.865696107601853
10
-98.63320743527197
20
-16.865696107601845
0
LWPOLYLINE
5
118
100
AcDbEntity
8
0
100
AcDbPolyline
90
4
70
1
43
0.0
10
49.932521436126798
20
-41.079256533718635
10
57.831147001124421
20
-42.348789591171524
10
57.35507210457957
20
-45.310774178045619
10
49.456446539581961
20
-44.04124112059273
0
LWPOLYLINE
5
119
100
AcDbEntity
8
0
100
AcDbPolyline
90
4
70
1
43
0.0
10
-16.970345106161993
20
-52.981649860130574
10
-24.970345106161986
20
-52.981649860130574
10
-24.970345106161986
20
-49.981649860130574
10
-16.970345106161993
20
-49.981649860130574
0
LWPOLYLINE
5
120
100
AcDbEntity
8
0
100
AcDbPolyline
90
4
70
1
43
0.0
10
-105.15922127230428
20
-16.865696107601845
10
-105.15922127230428
20
-24.865696107601853
10
-108.15922127230429
20
-24.865696107601853
10
-108.15922127230429
20
-16.865696107601845
0
LWPOLYLINE
5
121
100
AcDbEntity
8
0
100
AcDbPolyline
90
4
70
1
43
0.0
10
55.525990156233071
20
-51.690732622508108
10
55.04991525968822
20
-54.652717209382203
10
47.151289694690604
20
-53.383184151929328
10
47.627364591235448
20
-50.421199565055197
0
LWPOLYLINE
5
122
100
AcDbEntity
8
0
100
AcDbPolyline
90
4
70
1
43
0.0
10
-16.970345106161993
20
-40.455636023098265
10
-16.970345106161993
20
-43.455636023098265
10
-24.970345106161989
20
-43.455636023098272
10
-24.970345106161993
20
-40.455636023098265
0
CIRCLE
5
123
100
AcDbEntity
8
0
100
AcDbCircle
10
146.68099134829222
20
-81.505912111368204
30
0
40
1.5500000000000114
210
0
220
-0
230
1
0
CIRCLE
5
124
100
AcDbEntity
8
0
100
AcDbCircle
10
146.68099134829222
20
257.82208788863181
30
0
40
1.5500000000000114
210
0
220
-0
230
1
0
CIRCLE
5
125
100
AcDbEntity
8
0
100
AcDbCircle
10
146.68099134829222
20
4.5760878886317968
30
0
40
1.5500000000000114
210
0
220
-0
230
1
0
CIRCLE
5
126
100
AcDbEntity
8
0
100
AcDbCircle
10
146.68099134829222
20
176.74008788863179
30
0
40
1.5500000000000114
210
0
220
-0
230
1
0
CIRCLE
5
127
100
AcDbEntity
8
0
100
AcDbCircle
10
146.68099134829222
20
-157.58791211136815
30
0
40
1.5500000000000114
210
0
220
-0
230
1
0
CIRCLE
5
128
100
AcDbEntity
8
0
100
AcDbCircle
10
146.68099134829222
20
90.658087888631798
30
0
40
1.5500000000000114
210
0
220
-0
230
1
0
CIRCLE
5
129
100
AcDbEntity
8
0
100
AcDbCircle
10
-245.7580086517078
20
-157.58791211136815
30
0
40
1.5500000000000114
210
0
220
-0
230
1
0
CIRCLE
5
130
100
AcDbEntity
8
0
100
AcDbCircle
10
-245.7580086517078
20
176.74008788863179
30
0
40
1.5500000000000114
210
0
220
-0
230
1
0
CIRCLE
5
131
100
AcDbEntity
8
0
100
AcDbCircle
10
-245.7580086517078
20
90.658087888631798
30
0
40
1.5500000000000114
210
0
220
-0
230
1
0
CIRCLE
5
132
100
AcDbEntity
8
0
100
AcDbCircle
10
-245.7580086517078
20
-81.505912111368204
30
0
40
1.5500000000000114
210
0
220
-0
230
1
0
CIRCLE
5
133
100
AcDbEntity
8
0
100
AcDbCircle
10
-245.7580086517078
20
257.82208788863181
30
0
40
1.5500000000000114
210
0
220
-0
230
1
0
CIRCLE
5
134
100
AcDbEntity
8
0
100
AcDbCircle
10
-245.7580086517078
20
4.5760878886317968
30
0
40
1.5500000000000114
210
0
220
-0
230
1
0
CIRCLE
5
135
100
AcDbEntity
8
0
100
AcDbCircle
10
4.2419913482921956
20
247.82208788863181
30
0
40
1.5500000000000114
210
0
220
-0
230
1
0
CIRCLE
5
136
100
AcDbEntity
8
0
100
AcDbCircle
10
4.2419913482921956
20
-81.505912111368204
30
0
40
1.5500000000000114
210
0
220
-0
230
1
0
CIRCLE
5
137
100
AcDbEntity
8
0
100
AcDbCircle
10
-118.95800865170779
20
176.74008788863179
30
0
40
1.5500000000000114
210
0
220
-0
230
1
0
CIRCLE
5
138
100
AcDbEntity
8
0
100
AcDbCircle
10
-118.95800865170779
20
90.658087888631798
30
0
40
1.5500000000000114
210
0
220
-0
230
1
0
CIRCLE
5
139
100
AcDbEntity
8
0
100
AcDbCircle
10
4.2419913482921956
20
-157.58791211136815
30
0
40
1.5500000000000114
210
0
220
-0
230
1
0
CIRCLE
5
140
100
AcDbEntity
8
0
100
AcDbCircle
10
4.2419913482921956
20
176.74008788863179
30
0
40
1.5500000000000114
210
0
220
-0
230
1
0
CIRCLE
5
141
100
AcDbEntity
8
0
100
AcDbCircle
10
4.2419913482921956
20
4.5760878886317968
30
0
40
1.5500000000000114
210
0
220
-0
230
1
0
CIRCLE
5
142
100
AcDbEntity
8
0
100
AcDbCircle
10
-118.95800865170779
20
247.82208788863181
30
0
40
1.5500000000000114
210
0
220
-0
230
1
0
CIRCLE
5
143
100
AcDbEntity
8
0
100
AcDbCircle
10
-118.95800865170779
20
4.5760878886317968
30
0
40
1.5500000000000114
210
0
220
-0
230
1
0
CIRCLE
5
144
100
AcDbEntity
8
0
100
AcDbCircle
10
4.2419913482921956
20
90.658087888631798
30
0
40
1.5500000000000114
210
0
220
-0
230
1
0
CIRCLE
5
145
100
AcDbEntity
8
0
100
AcDbCircle
10
-167.27020865170778
20
-167.58791211136815
30
0
40
1.5500000000000114
210
0
220
-0
230
1
0
CIRCLE
5
146
100
AcDbEntity
8
0
100
AcDbCircle
10
-88.782408651707783
20
-167.58791211136815
30
0
40
1.5500000000000114
210
0
220
-0
230
1
0
CIRCLE
5
147
100
AcDbEntity
8
0
100
AcDbCircle
10
68.193191348292231
20
-167.58791211136815
30
0
40
1.5500000000000114
210
0
220
-0
230
1
0
CIRCLE
5
148
100
AcDbEntity
8
0
100
AcDbCircle
10
-185.38703980110898
20
39.268772425721693
30
0
40
1.4999999999999858
210
0
220
-0
230
1
0
CIRCLE
5
149
100
AcDbEntity
8
0
100
AcDbCircle
10
-52.387039801108983
20
39.268772425721693
30
0
40
1.4999999999999858
210
0
220
-0
230
1
0
CIRCLE
5
150
100
AcDbEntity
8
0
100
AcDbCircle
10
-62.387039801108983
20
167.85000000000002
30
0
40
1.4999999999999858
210
0
220
-0
230
1
0
CIRCLE
5
151
100
AcDbEntity
8
0
100
AcDbCircle
10
130
20
-151.50000000000003
30
0
40
5.8000000000000007
210
0
220
-0
230
1
0
CIRCLE
5
152
100
AcDbEntity
8
0
100
AcDbCircle
10
89.2802947657202
20
250.45000000000002
30
0
40
0.74999999999999289
210
0
220
-0
230
1
0
CIRCLE
5
153
100
AcDbEntity
8
0
100
AcDbCircle
10
63.680294765720205
20
250.45000000000002
30
0
40
0.74999999999999289
210
0
220
-0
230
1
0
LWPOLYLINE
5
154
100
AcDbEntity
8
0
100
AcDbPolyline
90
4
70
1
43
0.0
10
87.780294765720186
20
244.40000000000001
10
65.18029476572022
20
244.40000000000001
10
65.18029476572022
20
256.5
10
87.780294765720186
20
256.5
0
CIRCLE
5
155
100
AcDbEntity
8
0
100
AcDbCircle
10
-175.38703980110898
20
167.85000000000002
30
0
40
1.4999999999999858
210
0
220
-0
230
1
0
LWPOLYLINE
5
156
100
AcDbEntity
8
0
100
AcDbPolyline
90
10
70
1
43
0.0
10
-177.88703980110895
20
169.50000000000003
10
-177.88703980110898
20
163.85000000000005
10
-182.88703980110898
20
163.85000000000005
10
-182.88703980110898
20
169.50000000000003
42
0.41421356237310542
10
-184.88703980110898
20
171.50000000000003
10
-190.38703980110898
20
171.50000000000003
10
-190.38703980110898
20
212.00000000000003
10
-170.38703980110898
20
212.00000000000003
10
-170.38703980110898
20
171.50000000000003
10
-175.88703980110898
20
171.5
42
0.41421356237310542
0
CIRCLE
5
157
100
AcDbEntity
8
0
100
AcDbCircle
10
-185.38703980110898
20
167.85000000000002
30
0
40
1.4999999999999858
210
0
220
-0
230
1
0
ENDSEC
0
SECTION
2
OBJECTS
0
DICTIONARY
5
C
100
AcDbDictionary
3
ACAD_GROUP
350
D
3
ACAD_MLINESTYLE
350
17
0
DICTIONARY
5
D
100
AcDbDictionary
0
DICTIONARY
5
1A
330
C
100
AcDbDictionary
0
DICTIONARY
5
17
100
AcDbDictionary
0
ENDSEC
0
EOF
