0
SECTION
2
HEADER
9
$INSUNITS
70
4
9
$ACADVER
1
AC1014
9
$HANDSEED
5
FFFF
0
ENDSEC
0
SECTION
2
TABLES
0
TABLE
2
VPORT
5
8
100
AcDbSymbolTable
0
ENDTAB
0
TABLE
2
LTYPE
5
5
100
AcDbSymbolTable
0
LTYPE
5
14
100
AcDbSymbolTableRecord
100
AcDbLinetypeTableRecord
2
BYBLOCK
70
0
0
LTYPE
5
15
100
AcDbSymbolTableRecord
100
AcDbLinetypeTableRecord
2
BYLAYER
70
0
0
ENDTAB
0
TABLE
2
LAYER
5
2
100
AcDbSymbolTable
70
2
0
LAYER
5
50
100
AcDbSymbolTableRecord
100
AcDbLayerTableRecord
2
0
70
0
6
CONTINUOUS
0
ENDTAB
0
TABLE
2
STYLE
5
3
100
AcDbSymbolTable
70
1
0
STYLE
5
11
100
AcDbSymbolTableRecord
100
AcDbTextStyleTableRecord
2
STANDARD
70
0
0
ENDTAB
0
TABLE
2
VIEW
5
6
100
AcDbSymbolTable
70
0
0
ENDTAB
0
TABLE
2
UCS
5
7
100
AcDbSymbolTable
70
0
0
ENDTAB
0
TABLE
2
APPID
5
9
100
AcDbSymbolTable
70
2
0
APPID
5
12
100
AcDbSymbolTableRecord
100
AcDbRegAppTableRecord
2
ACAD
70
0
0
ENDTAB
0
TABLE
2
DIMSTYLE
5
A
100
AcDbSymbolTable
70
1
0
ENDTAB
0
TABLE
2
BLOCK_RECORD
5
1
100
AcDbSymbolTable
70
1
0
BLOCK_RECORD
5
1F
100
AcDbSymbolTableRecord
100
AcDbBlockTableRecord
2
*MODEL_SPACE
0
BLOCK_RECORD
5
1B
100
AcDbSymbolTableRecord
100
AcDbBlockTableRecord
2
*PAPER_SPACE
0
ENDTAB
0
ENDSEC
0
SECTION
2
BLOCKS
0
BLOCK
5
20
100
AcDbEntity
100
AcDbBlockBegin
2
*MODEL_SPACE
0
ENDBLK
5
21
100
AcDbEntity
100
AcDbBlockEnd
0
BLOCK
5
1C
100
AcDbEntity
100
AcDbBlockBegin
2
*PAPER_SPACE
0
ENDBLK
5
1D
100
AcDbEntity
100
AcDbBlockEnd
0
ENDSEC
0
SECTION
2
ENTITIES
0
LWPOLYLINE
5
100
100
AcDbEntity
8
0
100
AcDbPolyline
90
100
70
1
43
0.0
10
-87.232408651707772
20
369.50001675502671
10
-87.232408651707772
20
359.50001675502671
10
-86.032408651707769
20
359.50001675502671
10
-86.032408651707769
20
357.00001675502671
10
-87.232408651707772
20
357.00001675502671
10
-87.232408651707772
20
354.50001675502671
10
-90.332408651707794
20
354.50001675502671
10
-90.332408651707794
20
357.00001675502671
10
-91.532408651707783
20
357.00001675502671
10
-91.532408651707783
20
359.50001675502671
10
-90.332408651707794
20
359.50001675502671
10
-90.332408651707794
20
369.50001675502671
10
-165.72020865170776
20
369.50001675502671
10
-165.72020865170776
20
359.50001675502671
10
-164.5202086517078
20
359.50001675502671
10
-164.5202086517078
20
357.00001675502671
10
-165.72020865170776
20
357.00001675502671
10
-165.72020865170776
20
354.50001675502671
10
-168.82020865170779
20
354.50001675502671
10
-168.82020865170779
20
357.00001675502671
10
-170.0202086517078
20
357.00001675502671
10
-170.0202086517078
20
359.50001675502671
10
-168.82020865170779
20
359.50001675502671
10
-168.82020865170779
20
369.50001675502671
10
-242.50000844862291
20
369.50001675502671
10
-242.50000844862291
20
0.49999987378377853
10
-168.82020865170779
20
0.49999987378375632
10
-168.82020865170779
20
10.499999873783745
10
-170.02020865170778
20
10.499999873783745
10
-170.02020865170778
20
12.999999873783745
10
-168.82020865170779
20
12.999999873783745
10
-168.82020865170779
20
15.499999873783745
10
-165.72020865170776
20
15.499999873783745
10
-165.72020865170776
20
12.999999873783745
10
-164.52020865170778
20
12.999999873783745
10
-164.52020865170778
20
10.499999873783745
10
-165.72020865170776
20
10.499999873783745
10
-165.72020865170776
20
0.49999987378375632
10
-90.332408651707794
20
0.49999987378375632
10
-90.332408651707794
20
10.499999873783759
10
-91.532408651707783
20
10.499999873783759
10
-91.532408651707783
20
12.999999873783759
10
-90.332408651707794
20
12.999999873783759
10
-90.332408651707794
20
15.499999873783759
10
-87.232408651707772
20
15.499999873783759
10
-87.232408651707772
20
12.999999873783759
10
-86.032408651707769
20
12.999999873783759
10
-86.032408651707769
20
10.499999873783759
10
-87.232408651707772
20
10.499999873783759
10
-87.232408651707772
20
0.49999987378375632
10
-11.844608651707791
20
0.49999987378375632
10
-11.844608651707793
20
10.499999873783771
10
-13.044608651707767
20
10.499999873783771
10
-13.044608651707767
20
12.999999873783771
10
-11.844608651707793
20
12.999999873783771
10
-11.844608651707793
20
15.499999873783771
10
-8.7446086517077664
20
15.499999873783771
10
-8.7446086517077664
20
12.999999873783771
10
-7.5446086517077662
20
12.999999873783771
10
-7.5446086517077662
20
10.499999873783771
10
-8.7446086517077664
20
10.499999873783771
10
-8.7446086517077664
20
0.49999987378375632
10
66.64319134829222
20
0.49999987378375632
10
66.64319134829222
20
10.49999987378378
10
65.443191348292245
20
10.49999987378378
10
65.443191348292245
20
12.99999987378378
10
66.64319134829222
20
12.99999987378378
10
66.64319134829222
20
15.49999987378378
10
69.743191348292243
20
15.49999987378378
10
69.743191348292243
20
12.99999987378378
10
70.943191348292231
20
12.99999987378378
10
70.943191348292231
20
10.49999987378378
10
69.743191348292243
20
10.49999987378378
10
69.743191348292243
20
0.49999987378375632
10
143.28799607272833
20
0.49999987378379362
10
143.28799607272833
20
369.50001675502671
10
69.743191348292243
20
369.50001675502671
10
69.743191348292243
20
359.49999999999994
10
70.943191348292217
20
359.49999999999994
10
70.943191348292217
20
356.99999999999994
10
69.743191348292243
20
356.99999999999994
10
69.743191348292243
20
354.49999999999994
10
66.64319134829222
20
354.49999999999994
10
66.64319134829222
20
356.99999999999994
10
65.443191348292217
20
356.99999999999994
10
65.443191348292217
20
359.49999999999994
10
66.64319134829222
20
359.49999999999994
10
66.64319134829222
20
369.50001675502671
10
-8.7446086517077681
20
369.50001675502671
10
-8.7446086517077664
20
359.50001675502671
10
-7.5446086517077919
20
359.50001675502671
10
-7.5446086517077919
20
357.00001675502671
10
-8.7446086517077664
20
357.00001675502671
10
-8.7446086517077664
20
354.50001675502671
10
-11.844608651707793
20
354.50001675502671
10
-11.844608651707793
20
357.00001675502671
10
-13.044608651707792
20
357.00001675502671
10
-13.044608651707792
20
359.50001675502671
10
-11.844608651707793
20
359.50001675502671
10
-11.844608651707793
20
369.50001675502671
0
ENDSEC
0
SECTION
2
OBJECTS
0
DICTIONARY
5
C
100
AcDbDictionary
3
ACAD_GROUP
350
D
3
ACAD_MLINESTYLE
350
17
0
DICTIONARY
5
D
100
AcDbDictionary
0
DICTIONARY
5
1A
330
C
100
AcDbDictionary
0
DICTIONARY
5
17
100
AcDbDictionary
0
ENDSEC
0
EOF
