0
SECTION
2
HEADER
9
$INSUNITS
70
4
9
$ACADVER
1
AC1014
9
$HANDSEED
5
FFFF
0
ENDSEC
0
SECTION
2
TABLES
0
TABLE
2
VPORT
5
8
100
AcDbSymbolTable
0
ENDTAB
0
TABLE
2
LTYPE
5
5
100
AcDbSymbolTable
0
LTYPE
5
14
100
AcDbSymbolTableRecord
100
AcDbLinetypeTableRecord
2
BYBLOCK
70
0
0
LTYPE
5
15
100
AcDbSymbolTableRecord
100
AcDbLinetypeTableRecord
2
BYLAYER
70
0
0
ENDTAB
0
TABLE
2
LAYER
5
2
100
AcDbSymbolTable
70
2
0
LAYER
5
50
100
AcDbSymbolTableRecord
100
AcDbLayerTableRecord
2
0
70
0
6
CONTINUOUS
0
ENDTAB
0
TABLE
2
STYLE
5
3
100
AcDbSymbolTable
70
1
0
STYLE
5
11
100
AcDbSymbolTableRecord
100
AcDbTextStyleTableRecord
2
STANDARD
70
0
0
ENDTAB
0
TABLE
2
VIEW
5
6
100
AcDbSymbolTable
70
0
0
ENDTAB
0
TABLE
2
UCS
5
7
100
AcDbSymbolTable
70
0
0
ENDTAB
0
TABLE
2
APPID
5
9
100
AcDbSymbolTable
70
2
0
APPID
5
12
100
AcDbSymbolTableRecord
100
AcDbRegAppTableRecord
2
ACAD
70
0
0
ENDTAB
0
TABLE
2
DIMSTYLE
5
A
100
AcDbSymbolTable
70
1
0
ENDTAB
0
TABLE
2
BLOCK_RECORD
5
1
100
AcDbSymbolTable
70
1
0
BLOCK_RECORD
5
1F
100
AcDbSymbolTableRecord
100
AcDbBlockTableRecord
2
*MODEL_SPACE
0
BLOCK_RECORD
5
1B
100
AcDbSymbolTableRecord
100
AcDbBlockTableRecord
2
*PAPER_SPACE
0
ENDTAB
0
ENDSEC
0
SECTION
2
BLOCKS
0
BLOCK
5
20
100
AcDbEntity
100
AcDbBlockBegin
2
*MODEL_SPACE
0
ENDBLK
5
21
100
AcDbEntity
100
AcDbBlockEnd
0
BLOCK
5
1C
100
AcDbEntity
100
AcDbBlockBegin
2
*PAPER_SPACE
0
ENDBLK
5
1D
100
AcDbEntity
100
AcDbBlockEnd
0
ENDSEC
0
SECTION
2
ENTITIES
0
LWPOLYLINE
5
100
100
AcDbEntity
8
0
100
AcDbPolyline
90
8
70
1
43
0.0
10
-115.81541032414646
20
78.990329961808527
10
-115.81541032414641
20
136.9903299618085
42
-0.41421356237310542
10
-112.8154103241464
20
139.99032996180853
10
-28.81541032414642
20
139.9903299618085
42
-0.41421356237309509
10
-25.815410324146409
20
136.9903299618085
10
-25.815410324146406
20
78.990329961808513
42
-0.41421356237309509
10
-28.815410324146402
20
75.990329961808513
10
-112.8154103241464
20
75.990329961808513
42
-0.41421356237309681
0
LWPOLYLINE
5
101
100
AcDbEntity
8
0
100
AcDbPolyline
90
8
70
1
43
0.0
10
15.346556986230695
20
-128.22290245835788
10
15.346556986230695
20
-73.457899587156305
42
-0.41421356237309515
10
35.346556986230681
20
-53.457899587156334
10
204.17589107282282
20
-53.457899587156341
42
-0.41421356237309448
10
224.17589107282276
20
-73.457899587156305
10
224.17589107282276
20
-128.22290245835788
42
-0.41421356237309509
10
204.17589107282276
20
-148.22290245835788
10
35.346556986230695
20
-148.22290245835788
42
-0.41421356237309509
0
CIRCLE
5
102
100
AcDbEntity
8
0
100
AcDbCircle
10
-4.1809913482922312
20
4.5760878886317968
30
0
40
1.5500000000000114
210
0
220
-0
230
1
0
CIRCLE
5
103
100
AcDbEntity
8
0
100
AcDbCircle
10
-4.1809913482922312
20
-81.505912111368204
30
0
40
1.5500000000000114
210
0
220
-0
230
1
0
CIRCLE
5
104
100
AcDbEntity
8
0
100
AcDbCircle
10
-4.1809913482922312
20
90.658087888631798
30
0
40
1.5500000000000114
210
0
220
-0
230
1
0
CIRCLE
5
105
100
AcDbEntity
8
0
100
AcDbCircle
10
-4.1809913482922312
20
-157.58791211136815
30
0
40
1.5500000000000114
210
0
220
-0
230
1
0
CIRCLE
5
106
100
AcDbEntity
8
0
100
AcDbCircle
10
-4.1809913482922312
20
176.74008788863179
30
0
40
1.5500000000000114
210
0
220
-0
230
1
0
CIRCLE
5
107
100
AcDbEntity
8
0
100
AcDbCircle
10
7.4791672808483955
20
213.28711426876467
30
0
40
1.5499999999999934
210
0
220
0
230
1
0
CIRCLE
5
108
100
AcDbEntity
8
0
100
AcDbCircle
10
120.47916728084843
20
23.287114268764668
30
0
40
1.5499999999999934
210
0
220
0
230
1
0
CIRCLE
5
109
100
AcDbEntity
8
0
100
AcDbCircle
10
233.47916728084843
20
213.28711426876467
30
0
40
1.5499999999999758
210
0
220
0
230
1
0
CIRCLE
5
110
100
AcDbEntity
8
0
100
AcDbCircle
10
7.4791672808483955
20
113.28711426876467
30
0
40
1.5499999999999934
210
0
220
0
230
1
0
CIRCLE
5
111
100
AcDbEntity
8
0
100
AcDbCircle
10
233.47916728084843
20
23.287114268764668
30
0
40
1.5499999999999758
210
0
220
0
230
1
0
CIRCLE
5
112
100
AcDbEntity
8
0
100
AcDbCircle
10
233.47916728084843
20
113.28711426876467
30
0
40
1.5499999999999758
210
0
220
0
230
1
0
CIRCLE
5
113
100
AcDbEntity
8
0
100
AcDbCircle
10
7.4791672808483955
20
23.287114268764668
30
0
40
1.5499999999999934
210
0
220
0
230
1
0
CIRCLE
5
114
100
AcDbEntity
8
0
100
AcDbCircle
10
-24.815410324146406
20
152.23475348946877
30
0
40
1.5499999999999934
210
0
220
0
230
1
0
CIRCLE
5
115
100
AcDbEntity
8
0
100
AcDbCircle
10
-116.81541032414646
20
152.23475348946877
30
0
40
1.5499999999999934
210
0
220
0
230
1
0
CIRCLE
5
116
100
AcDbEntity
8
0
100
AcDbCircle
10
-116.81541032414646
20
57.383549939700686
30
0
40
1.5499999999999934
210
0
220
0
230
1
0
CIRCLE
5
117
100
AcDbEntity
8
0
100
AcDbCircle
10
-24.815410324146406
20
57.383549939700686
30
0
40
1.5499999999999934
210
0
220
0
230
1
0
CIRCLE
5
118
100
AcDbEntity
8
0
100
AcDbCircle
10
-21.815410324146409
20
68.240329961808527
30
0
40
1.549999999999998
210
0
220
0
230
1
0
CIRCLE
5
119
100
AcDbEntity
8
0
100
AcDbCircle
10
-21.815410324146409
20
141.74032996180853
30
0
40
1.549999999999998
210
0
220
0
230
1
0
CIRCLE
5
120
100
AcDbEntity
8
0
100
AcDbCircle
10
-119.81541032414641
20
68.240329961808527
30
0
40
1.5499999999999934
210
0
220
0
230
1
0
CIRCLE
5
121
100
AcDbEntity
8
0
100
AcDbCircle
10
-119.81541032414641
20
141.74032996180853
30
0
40
1.5499999999999934
210
0
220
0
230
1
0
CIRCLE
5
122
100
AcDbEntity
8
0
100
AcDbCircle
10
-97.315410324146427
20
-79.664896093497788
30
0
40
1.5499999999999934
210
0
220
0
230
1
0
CIRCLE
5
123
100
AcDbEntity
8
0
100
AcDbCircle
10
-97.315410324146427
20
23.335103906502201
30
0
40
1.5499999999999934
210
0
220
0
230
1
0
CIRCLE
5
124
100
AcDbEntity
8
0
100
AcDbCircle
10
-44.315410324146434
20
-79.664896093497788
30
0
40
1.5500000000000025
210
0
220
0
230
1
0
CIRCLE
5
125
100
AcDbEntity
8
0
100
AcDbCircle
10
-44.315410324146434
20
23.335103906502201
30
0
40
1.5500000000000025
210
0
220
0
230
1
0
LWPOLYLINE
5
126
100
AcDbEntity
8
0
100
AcDbPolyline
90
8
70
1
43
0.0
10
-93.315410324146413
20
-82.164896093497788
10
-93.315410324146455
20
25.835103906502184
42
-0.41421356237310802
10
-92.315410324146427
20
26.835103906502212
10
-49.31541032414637
20
26.835103906502198
42
-0.41421356237309637
10
-48.315410324146377
20
25.835103906502198
10
-48.315410324146384
20
-82.164896093497788
42
-0.41421356237308204
10
-49.315410324146356
20
-83.164896093497759
10
-92.315410324146427
20
-83.164896093497788
42
-0.4142135623731002
0
CIRCLE
5
127
100
AcDbEntity
8
0
100
AcDbCircle
10
10.29460865170778
20
-167.58791211136815
30
0
40
1.5500000000000136
210
0
220
0
230
1
0
CIRCLE
5
128
100
AcDbEntity
8
0
100
AcDbCircle
10
88.782408651707783
20
-167.58791211136815
30
0
40
1.5500000000000114
210
0
220
0
230
1
0
CIRCLE
5
129
100
AcDbEntity
8
0
100
AcDbCircle
10
-68.193191348292231
20
-167.58791211136815
30
0
40
1.5500000000000114
210
0
220
0
230
1
0
CIRCLE
5
130
100
AcDbEntity
8
0
100
AcDbCircle
10
167.27020865170778
20
-167.58791211136815
30
0
40
1.5500000000000114
210
0
220
0
230
1
0
CIRCLE
5
131
100
AcDbEntity
8
0
100
AcDbCircle
10
-36.815410324146413
20
57.990329961808513
30
0
40
5.9999999999999964
210
0
220
0
230
1
0
CIRCLE
5
132
100
AcDbEntity
8
0
100
AcDbCircle
10
-104.81541032414646
20
57.990329961808499
30
0
40
5.9999999999999964
210
0
220
0
230
1
0
CIRCLE
5
133
100
AcDbEntity
8
0
100
AcDbCircle
10
-3.9302115584284536
20
252.82208788863181
30
0
40
1.5500000000000114
210
0
220
0
230
1
0
CIRCLE
5
134
100
AcDbEntity
8
0
100
AcDbCircle
10
245.7580086517078
20
90.658087888631798
30
0
40
1.5500000000000114
210
0
220
0
230
1
0
CIRCLE
5
135
100
AcDbEntity
8
0
100
AcDbCircle
10
245.7580086517078
20
4.5760878886317968
30
0
40
1.5500000000000114
210
0
220
0
230
1
0
CIRCLE
5
136
100
AcDbEntity
8
0
100
AcDbCircle
10
245.7580086517078
20
176.74008788863179
30
0
40
1.5500000000000114
210
0
220
0
230
1
0
CIRCLE
5
137
100
AcDbEntity
8
0
100
AcDbCircle
10
245.7580086517078
20
-81.505912111368204
30
0
40
1.5500000000000114
210
0
220
0
230
1
0
CIRCLE
5
138
100
AcDbEntity
8
0
100
AcDbCircle
10
245.7580086517078
20
257.82208788863181
30
0
40
1.5500000000000114
210
0
220
0
230
1
0
CIRCLE
5
139
100
AcDbEntity
8
0
100
AcDbCircle
10
245.7580086517078
20
-157.58791211136815
30
0
40
1.5500000000000114
210
0
220
0
230
1
0
CIRCLE
5
140
100
AcDbEntity
8
0
100
AcDbCircle
10
-146.68099134829222
20
257.82208788863181
30
0
40
1.5500000000000114
210
0
220
0
230
1
0
CIRCLE
5
141
100
AcDbEntity
8
0
100
AcDbCircle
10
-146.68099134829222
20
4.5760878886317968
30
0
40
1.5500000000000114
210
0
220
0
230
1
0
CIRCLE
5
142
100
AcDbEntity
8
0
100
AcDbCircle
10
-146.68099134829222
20
90.658087888631798
30
0
40
1.5500000000000114
210
0
220
0
230
1
0
CIRCLE
5
143
100
AcDbEntity
8
0
100
AcDbCircle
10
-146.68099134829222
20
-81.505912111368204
30
0
40
1.5500000000000114
210
0
220
0
230
1
0
CIRCLE
5
144
100
AcDbEntity
8
0
100
AcDbCircle
10
-146.68099134829222
20
176.74008788863179
30
0
40
1.5500000000000114
210
0
220
0
230
1
0
CIRCLE
5
145
100
AcDbEntity
8
0
100
AcDbCircle
10
-146.68099134829222
20
-157.58791211136815
30
0
40
1.5500000000000114
210
0
220
0
230
1
0
CIRCLE
5
146
100
AcDbEntity
8
0
100
AcDbCircle
10
-104.81541032414646
20
151.9903299618085
30
0
40
5.9999999999999964
210
0
220
0
230
1
0
CIRCLE
5
147
100
AcDbEntity
8
0
100
AcDbCircle
10
-36.815410324146413
20
151.9903299618085
30
0
40
5.9999999999999964
210
0
220
0
230
1
0
LWPOLYLINE
5
148
100
AcDbEntity
8
0
100
AcDbPolyline
90
4
70
1
43
0.0
10
249.50000000000003
20
-171.50000000000003
10
249.5
20
266.5
10
-150.28800000000007
20
266.5
10
-150.28800000000004
20
-171.50000000000003
0
LWPOLYLINE
5
149
100
AcDbEntity
8
0
100
AcDbPolyline
90
8
70
1
43
0.0
10
205.47916728084843
20
29.776856293785521
10
35.479167280848429
20
29.776856293785521
42
-0.41421356237309515
10
15.479167280848429
20
49.776856293785528
10
15.47916728084839
20
209.77685629378556
42
-0.41421356237309381
10
35.479167280848415
20
229.77685629378553
10
205.47916728084843
20
229.77685629378556
42
-0.41421356237309553
10
225.47916728084843
20
209.77685629378553
10
225.47916728084843
20
49.776856293785485
42
-0.41421356237309342
0
ENDSEC
0
SECTION
2
OBJECTS
0
DICTIONARY
5
C
100
AcDbDictionary
3
ACAD_GROUP
350
D
3
ACAD_MLINESTYLE
350
17
0
DICTIONARY
5
D
100
AcDbDictionary
0
DICTIONARY
5
1A
330
C
100
AcDbDictionary
0
DICTIONARY
5
17
100
AcDbDictionary
0
ENDSEC
0
EOF
