0
SECTION
2
HEADER
9
$INSUNITS
70
4
9
$ACADVER
1
AC1014
9
$HANDSEED
5
FFFF
0
ENDSEC
0
SECTION
2
TABLES
0
TABLE
2
VPORT
5
8
100
AcDbSymbolTable
0
ENDTAB
0
TABLE
2
LTYPE
5
5
100
AcDbSymbolTable
0
LTYPE
5
14
100
AcDbSymbolTableRecord
100
AcDbLinetypeTableRecord
2
BYBLOCK
70
0
0
LTYPE
5
15
100
AcDbSymbolTableRecord
100
AcDbLinetypeTableRecord
2
BYLAYER
70
0
0
ENDTAB
0
TABLE
2
LAYER
5
2
100
AcDbSymbolTable
70
2
0
LAYER
5
50
100
AcDbSymbolTableRecord
100
AcDbLayerTableRecord
2
0
70
0
6
CONTINUOUS
0
ENDTAB
0
TABLE
2
STYLE
5
3
100
AcDbSymbolTable
70
1
0
STYLE
5
11
100
AcDbSymbolTableRecord
100
AcDbTextStyleTableRecord
2
STANDARD
70
0
0
ENDTAB
0
TABLE
2
VIEW
5
6
100
AcDbSymbolTable
70
0
0
ENDTAB
0
TABLE
2
UCS
5
7
100
AcDbSymbolTable
70
0
0
ENDTAB
0
TABLE
2
APPID
5
9
100
AcDbSymbolTable
70
2
0
APPID
5
12
100
AcDbSymbolTableRecord
100
AcDbRegAppTableRecord
2
ACAD
70
0
0
ENDTAB
0
TABLE
2
DIMSTYLE
5
A
100
AcDbSymbolTable
70
1
0
ENDTAB
0
TABLE
2
BLOCK_RECORD
5
1
100
AcDbSymbolTable
70
1
0
BLOCK_RECORD
5
1F
100
AcDbSymbolTableRecord
100
AcDbBlockTableRecord
2
*MODEL_SPACE
0
BLOCK_RECORD
5
1B
100
AcDbSymbolTableRecord
100
AcDbBlockTableRecord
2
*PAPER_SPACE
0
ENDTAB
0
ENDSEC
0
SECTION
2
BLOCKS
0
BLOCK
5
20
100
AcDbEntity
100
AcDbBlockBegin
2
*MODEL_SPACE
0
ENDBLK
5
21
100
AcDbEntity
100
AcDbBlockEnd
0
BLOCK
5
1C
100
AcDbEntity
100
AcDbBlockBegin
2
*PAPER_SPACE
0
ENDBLK
5
1D
100
AcDbEntity
100
AcDbBlockEnd
0
ENDSEC
0
SECTION
2
ENTITIES
0
CIRCLE
5
100
100
AcDbEntity
8
0
100
AcDbCircle
10
-31.999999999999993
20
-95.5
30
0
40
1.5500000000000114
210
0
220
-0
230
1
0
CIRCLE
5
101
100
AcDbEntity
8
0
100
AcDbCircle
10
-32.000000000000028
20
-139.5
30
0
40
1.5500000000000114
210
0
220
-0
230
1
0
CIRCLE
5
102
100
AcDbEntity
8
0
100
AcDbCircle
10
-31.999999999999993
20
-55.5
30
0
40
1.5500000000000114
210
0
220
-0
230
1
0
CIRCLE
5
103
100
AcDbEntity
8
0
100
AcDbCircle
10
-32.000000000000028
20
-179.5
30
0
40
1.5500000000000114
210
0
220
-0
230
1
0
CIRCLE
5
104
100
AcDbEntity
8
0
100
AcDbCircle
10
-152.99999999999997
20
-179.5
30
0
40
1.5500000000000114
210
0
220
-0
230
1
0
CIRCLE
5
105
100
AcDbEntity
8
0
100
AcDbCircle
10
-152.99999999999997
20
-55.5
30
0
40
1.5500000000000114
210
0
220
-0
230
1
0
CIRCLE
5
106
100
AcDbEntity
8
0
100
AcDbCircle
10
-133.00000354647636
20
-195.5
30
0
40
1.5500000000000114
210
0
220
-0
230
1
0
CIRCLE
5
107
100
AcDbEntity
8
0
100
AcDbCircle
10
-93.000003546476364
20
-39.5
30
0
40
1.5500000000000114
210
0
220
-0
230
1
0
CIRCLE
5
108
100
AcDbEntity
8
0
100
AcDbCircle
10
-53.000003546476364
20
-195.5
30
0
40
1.5500000000000114
210
0
220
-0
230
1
0
CIRCLE
5
109
100
AcDbEntity
8
0
100
AcDbCircle
10
-152.99999999999997
20
-139.5
30
0
40
1.5500000000000114
210
0
220
-0
230
1
0
CIRCLE
5
110
100
AcDbEntity
8
0
100
AcDbCircle
10
-152.99999999999997
20
-95.5
30
0
40
1.5500000000000114
210
0
220
-0
230
1
0
CIRCLE
5
111
100
AcDbEntity
8
0
100
AcDbCircle
10
-93.000003546476364
20
-195.5
30
0
40
1.5500000000000114
210
0
220
-0
230
1
0
LWPOLYLINE
5
112
100
AcDbEntity
8
0
100
AcDbPolyline
90
8
70
1
43
0.0
10
-40
20
-57.5
10
-40
20
-177.5
42
-0.41421356237309509
10
-50
20
-187.5
10
-135
20
-187.5
42
-0.41421356237309509
10
-145.00000000000003
20
-177.5
10
-145
20
-57.5
42
-0.4142135623730927
10
-134.99999999999994
20
-47.5
10
-50
20
-47.5
42
-0.41421356237309603
0
LWPOLYLINE
5
113
100
AcDbEntity
8
0
100
AcDbPolyline
90
172
70
1
43
0.0
10
174.99999456107616
20
131.23244698526327
10
185
20
131.23244698526327
10
185
20
209.01590775535453
10
175.02053253614744
20
209.01590775535453
10
175.02053253614744
20
207.67362115467321
10
174.99999456107616
20
207.67362115467321
10
174.99999456107616
20
207.66837448931309
10
172.49999456107616
20
207.66837448931309
10
172.49999456107616
20
209.01590775535453
10
170.02053238713583
20
209.01590775535453
10
170.02053238713583
20
212.14199559928286
10
172.49999456107616
20
212.14199559928286
10
172.49999456107616
20
213.16837448931307
10
172.52053253614744
20
213.16837448931309
10
172.52053253614744
20
213.17362115467321
10
175.02053253614744
20
213.17362115467321
10
175.02053253614744
20
212.11590775535456
10
185
20
212.11590775535456
10
185
20
219.00000000000003
10
-185
20
219.00000000000003
10
-185
20
211.83334954088934
10
-175.00000543892384
20
211.83334954088934
10
-175.00000543892384
20
213.16837448931307
10
-172.50000543892384
20
213.16837448931307
10
-172.50000543892384
20
211.83334954088934
10
-170.00000528991222
20
211.83334954088934
10
-170.00000528991222
20
208.70726169696101
10
-172.50000543892384
20
208.70726169696101
10
-172.50000543892384
20
207.66837448931309
10
-175.00000543892384
20
207.66837448931309
10
-175.00000543892384
20
208.73334954088932
10
-185
20
208.73334954088932
10
-185
20
130.91253370768652
10
-175.00000543892384
20
130.91253370768652
10
-175.00000543892384
20
132.26837448931315
10
-172.50000543892384
20
132.26837448931315
10
-172.50000543892384
20
130.91253370768652
10
-170.00000528991222
20
130.91253370768652
10
-170.00000528991222
20
127.78644586375819
10
-172.50000543892384
20
127.78644586375819
10
-172.50000543892384
20
126.76837448931309
10
-175.00000543892384
20
126.76837448931309
10
-175.00000543892384
20
127.8125337076865
10
-185
20
127.8125337076865
10
-185
20
44.822655619736445
10
-175.00000543892384
20
44.822655619736445
10
-175.00000543892384
20
46.168374489313102
10
-172.50000543892384
20
46.168374489313102
10
-172.50000543892384
20
44.822655619736445
10
-170.00000528991222
20
44.822655619736445
10
-170.00000528991222
20
41.69656777580812
10
-172.50000543892384
20
41.69656777580812
10
-172.50000543892384
20
40.668374489313095
10
-175.00000543892384
20
40.668374489313095
10
-175.00000543892384
20
41.722655619736422
10
-185
20
41.722655619736422
10
-185
20
-41.373912111368192
10
-175.00000543892384
20
-41.373912111368192
10
-175.00000543892384
20
-40.031625510686879
10
-172.50000543892384
20
-40.031625510686879
10
-172.50000543892384
20
-41.373912111368192
10
-170.00000528991222
20
-41.373912111368192
10
-170.00000528991222
20
-44.499999955296516
10
-172.50000543892384
20
-44.499999955296516
10
-172.50000543892384
20
-45.531625510686887
10
-175.00000543892384
20
-45.531625510686887
10
-175.00000543892384
20
-44.473912111368215
10
-185
20
-44.473912111368215
10
-185
20
-127.5739121113682
10
-175.00000543892384
20
-127.5739121113682
10
-175.00000543892384
20
-126.23162551068688
10
-172.50000543892384
20
-126.23162551068688
10
-172.50000543892384
20
-127.5739121113682
10
-170.00000528991222
20
-127.5739121113682
10
-170.00000528991222
20
-130.69999995529653
10
-172.50000543892384
20
-130.69999995529653
10
-172.50000543892384
20
-131.73162551068688
10
-175.00000543892384
20
-131.73162551068688
10
-175.00000543892384
20
-130.67391211136822
10
-185
20
-130.67391211136822
10
-185
20
-203.69252576602923
10
-175.00000543892384
20
-203.69252576602923
10
-175.00000543892384
20
-202.33162551068688
10
-172.50000543892384
20
-202.33162551068688
10
-172.50000543892384
20
-203.69252576602923
10
-170.00000528991222
20
-203.69252576602923
10
-170.00000528991222
20
-206.81861360995757
10
-172.50000543892384
20
-206.81861360995757
10
-172.50000543892384
20
-207.83162551068688
10
-175.00000543892384
20
-207.83162551068688
10
-175.00000543892384
20
-206.79252576602926
10
-185
20
-206.79252576602926
10
-185
20
-219.00000000000003
10
185
20
-219.00000000000003
10
185
20
-206.47261248844995
10
174.99999456107616
20
-206.4726124884499
10
174.99999456107616
20
-207.83162551068685
10
172.49999456107616
20
-207.83162551068688
10
172.49999456107616
20
-207.81489908913127
10
172.48640025719791
20
-207.81489908913127
10
172.48640025719791
20
-206.47261248844995
10
169.98640010818633
20
-206.47261248844995
10
169.9864001081863
20
-203.34652464452165
10
172.48640025719791
20
-203.34652464452165
10
172.48640025719791
20
-202.3148990891313
10
174.98640025719789
20
-202.3148990891313
10
174.98640025719789
20
-202.33162551068688
10
174.99999456107616
20
-202.33162551068688
10
174.99999456107616
20
-203.37261248844996
10
185
20
-203.37261248844996
10
185
20
-130.3948823796851
10
174.99999456107616
20
-130.3948823796851
10
174.99999456107616
20
-131.73162551068688
10
174.98640025719789
20
-131.73162551068688
10
174.98640025719789
20
-131.73716898036642
10
172.48640025719791
20
-131.73716898036642
10
172.48640025719791
20
-130.3948823796851
10
169.98640010818633
20
-130.3948823796851
10
169.9864001081863
20
-127.26879453575683
10
172.48640025719791
20
-127.26879453575683
10
172.48640025719791
20
-126.23716898036646
10
172.49999456107616
20
-126.23716898036646
10
172.49999456107616
20
-126.23162551068688
10
174.99999456107616
20
-126.23162551068688
10
174.99999456107616
20
-127.29488237968512
10
185
20
-127.29488237968512
10
185
20
-44.189011263347368
10
174.99999456107616
20
-44.189011263347368
10
174.99999456107616
20
-45.531625510686887
10
172.49999456107616
20
-45.531625510686887
10
172.49999456107616
20
-45.531297864028687
10
172.48640025719789
20
-45.531297864028687
10
172.48640025719789
20
-44.189011263347368
10
169.98640010818627
20
-44.189011263347368
10
169.9864001081863
20
-41.06292341941915
10
172.48640025719791
20
-41.06292341941915
10
172.48640025719789
20
-40.031297864028787
10
174.98640025719783
20
-40.031297864028787
10
174.98640025719789
20
-40.031625510686872
10
174.99999456107616
20
-40.031625510686879
10
174.99999456107616
20
-41.089011263347416
10
185
20
-41.089011263347416
10
185
20
42.04255124596699
10
174.99999456107616
20
42.04255124596699
10
174.99999456107616
20
40.668374489313095
10
172.49999456107616
20
40.668374489313095
10
172.49999456107616
20
40.700264645285671
10
172.48640025719789
20
40.700264645285671
10
172.48640025719789
20
42.04255124596699
10
169.98640010818627
20
42.04255124596699
10
169.9864001081863
20
45.168639089895208
10
172.48640025719789
20
45.168639089895208
10
172.48640025719789
20
46.200264645285642
10
174.98640025719789
20
46.200264645285642
10
174.98640025719789
20
46.168374489313081
10
174.99999456107616
20
46.168374489313102
10
174.99999456107616
20
45.142551245966942
10
185
20
45.142551245966942
10
185
20
128.13244698526324
10
174.99999456107616
20
128.13244698526324
10
174.99999456107616
20
126.76837448931309
10
172.49999456107616
20
126.76837448931309
10
172.49999456107616
20
126.79016038458201
10
172.48640025719789
20
126.79016038458201
10
172.48640025719789
20
128.13244698526324
10
169.98640010818627
20
128.13244698526324
10
169.9864001081863
20
131.2585348291916
10
172.48640025719789
20
131.2585348291916
10
172.48640025719789
20
132.2901603845819
10
174.98640025719783
20
132.2901603845819
10
174.98640025719789
20
132.26837448931315
10
174.99999456107616
20
132.26837448931315
0
ENDSEC
0
SECTION
2
OBJECTS
0
DICTIONARY
5
C
100
AcDbDictionary
3
ACAD_GROUP
350
D
3
ACAD_MLINESTYLE
350
17
0
DICTIONARY
5
D
100
AcDbDictionary
0
DICTIONARY
5
1A
330
C
100
AcDbDictionary
0
DICTIONARY
5
17
100
AcDbDictionary
0
ENDSEC
0
EOF
