0
SECTION
2
HEADER
9
$INSUNITS
70
4
9
$ACADVER
1
AC1014
9
$HANDSEED
5
FFFF
0
ENDSEC
0
SECTION
2
TABLES
0
TABLE
2
VPORT
5
8
100
AcDbSymbolTable
0
ENDTAB
0
TABLE
2
LTYPE
5
5
100
AcDbSymbolTable
0
LTYPE
5
14
100
AcDbSymbolTableRecord
100
AcDbLinetypeTableRecord
2
BYBLOCK
70
0
0
LTYPE
5
15
100
AcDbSymbolTableRecord
100
AcDbLinetypeTableRecord
2
BYLAYER
70
0
0
ENDTAB
0
TABLE
2
LAYER
5
2
100
AcDbSymbolTable
70
2
0
LAYER
5
50
100
AcDbSymbolTableRecord
100
AcDbLayerTableRecord
2
0
70
0
6
CONTINUOUS
0
ENDTAB
0
TABLE
2
STYLE
5
3
100
AcDbSymbolTable
70
1
0
STYLE
5
11
100
AcDbSymbolTableRecord
100
AcDbTextStyleTableRecord
2
STANDARD
70
0
0
ENDTAB
0
TABLE
2
VIEW
5
6
100
AcDbSymbolTable
70
0
0
ENDTAB
0
TABLE
2
UCS
5
7
100
AcDbSymbolTable
70
0
0
ENDTAB
0
TABLE
2
APPID
5
9
100
AcDbSymbolTable
70
2
0
APPID
5
12
100
AcDbSymbolTableRecord
100
AcDbRegAppTableRecord
2
ACAD
70
0
0
ENDTAB
0
TABLE
2
DIMSTYLE
5
A
100
AcDbSymbolTable
70
1
0
ENDTAB
0
TABLE
2
BLOCK_RECORD
5
1
100
AcDbSymbolTable
70
1
0
BLOCK_RECORD
5
1F
100
AcDbSymbolTableRecord
100
AcDbBlockTableRecord
2
*MODEL_SPACE
0
BLOCK_RECORD
5
1B
100
AcDbSymbolTableRecord
100
AcDbBlockTableRecord
2
*PAPER_SPACE
0
ENDTAB
0
ENDSEC
0
SECTION
2
BLOCKS
0
BLOCK
5
20
100
AcDbEntity
100
AcDbBlockBegin
2
*MODEL_SPACE
0
ENDBLK
5
21
100
AcDbEntity
100
AcDbBlockEnd
0
BLOCK
5
1C
100
AcDbEntity
100
AcDbBlockBegin
2
*PAPER_SPACE
0
ENDBLK
5
1D
100
AcDbEntity
100
AcDbBlockEnd
0
ENDSEC
0
SECTION
2
ENTITIES
0
LWPOLYLINE
5
100
100
AcDbEntity
8
0
100
AcDbPolyline
90
4
70
1
43
0.0
10
45
20
117
10
45
20
120
10
55
20
120
10
55
20
117
0
LWPOLYLINE
5
101
100
AcDbEntity
8
0
100
AcDbPolyline
90
4
70
1
43
0.0
10
145
20
117
10
145
20
120
10
155
20
120
10
155
20
117
0
LWPOLYLINE
5
102
100
AcDbEntity
8
0
100
AcDbPolyline
90
164
70
1
43
0.0
10
370
20
92.719040124189135
10
370
20
175.70104012418909
10
360.00000543892384
20
175.70104012418909
10
360.00000543892384
20
174.77932672487043
10
357.50000543892384
20
174.77932672487043
10
357.50000543892384
20
175.70104012418909
10
355
20
175.70104012418909
10
355
20
178.80104012418911
10
357.50000543892384
20
178.80104012418911
10
357.50000543892384
20
180.27932672487049
10
360.00000543892384
20
180.27932672487049
10
360.00000543892384
20
178.80104012418911
10
370
20
178.80104012418911
10
370
20
251.78304012418914
10
360.00000543892384
20
251.78304012418914
10
360.00000543892384
20
250.87932672487042
10
357.50000543892384
20
250.87932672487042
10
357.50000543892384
20
251.78304012418914
10
354.99999999999994
20
251.78304012418914
10
354.99999999999994
20
254.88304012418916
10
357.50000543892384
20
254.88304012418916
10
357.50000543892384
20
256.3793267248704
10
360.00000543892384
20
256.3793267248704
10
360.00000543892384
20
254.88304012418916
10
370
20
254.88304012418916
10
370
20
260.51095223555734
10
331.66123640676358
20
260.51095223555734
10
331.66123640676358
20
258.51095223555728
10
301.66123640676358
20
258.51095223555728
10
301.66123640676358
20
261.01095223555728
10
246.66123640676361
20
261.01095223555728
10
246.66123640676361
20
258.51095223555728
10
216.66123640676361
20
258.51095223555728
10
216.66123640676361
20
261.01095223555728
10
161.66123640676361
20
261.01095223555728
10
161.66123640676361
20
258.51095223555728
10
131.66123640676361
20
258.51095223555728
10
131.66123640676361
20
261.01095223555728
10
76.661236406763607
20
261.01095223555728
10
76.661236406763607
20
258.51095223555728
10
46.661236406763607
20
258.51095223555728
10
46.661236406763607
20
261.01095223555728
10
0
20
261.01095223555728
10
0
20
249.88304012418908
10
10.000005438923836
20
249.88304012418908
10
10.000005438923836
20
251.15930690645604
10
12.500005438923836
20
251.15930690645604
10
12.500005438923836
20
249.88304012418908
10
15
20
249.88304012418908
10
15
20
246.78304012418914
10
12.500005438923836
20
246.78304012418914
10
12.500005438923836
20
245.6593069064561
10
10.000005438923836
20
245.6593069064561
10
10.000005438923836
20
246.78304012418914
10
0
20
246.78304012418914
10
0
20
178.80104012418911
10
10.000005438923836
20
178.80104012418911
10
10.000005438923836
20
180.27932672487049
10
12.500005438923836
20
180.27932672487049
10
12.500005438923836
20
178.80104012418911
10
15
20
178.80104012418911
10
15
20
175.70104012418909
10
12.500005438923836
20
175.70104012418909
10
12.500005438923836
20
174.77932672487043
10
10.000005438923836
20
174.77932672487043
10
10.000005438923836
20
175.70104012418909
10
0
20
175.70104012418909
10
0
20
92.719040124189135
10
10.000005438923836
20
92.719040124189135
10
10.000005438923836
20
94.179326724870421
10
12.500005438923836
20
94.179326724870421
10
12.500005438923836
20
92.719040124189135
10
16
20
92.719040124189135
10
16
20
89.619040124189112
10
12.500005438923836
20
89.619040124189112
10
12.500005438923836
20
88.679326724870421
10
10.000005438923836
20
88.679326724870421
10
10.000005438923836
20
89.619040124189112
10
0
20
89.619040124189112
10
0
20
6.6370401241891308
10
10.000005438923836
20
6.6370401241891308
10
10.000005438923836
20
7.9793267248704414
10
12.500005438923836
20
7.9793267248704414
10
12.500005438923836
20
6.6370401241891308
10
16
20
6.6370401241891308
10
16
20
3.5370401241891081
10
12.500005438923836
20
3.5370401241891081
10
12.500005438923836
20
2.4793267248704343
10
10.000005438923836
20
2.4793267248704343
10
10.000005438923836
20
3.5370401241891081
10
0
20
3.5370401241891081
10
0
20
-79.444959875810866
10
10.000005438923836
20
-79.444959875810866
10
10.000005438923836
20
-78.220673275129556
10
12.500005438923836
20
-78.220673275129556
10
12.500005438923836
20
-79.444959875810866
10
16
20
-79.444959875810866
10
16
20
-82.544959875810889
10
12.500005438923836
20
-82.544959875810889
10
12.500005438923836
20
-83.72067327512957
10
10.000005438923836
20
-83.72067327512957
10
10.000005438923836
20
-82.544959875810889
10
0
20
-82.544959875810889
10
0
20
-155.52695987581083
10
10.000005438923836
20
-155.52695987581083
10
10.000005438923836
20
-154.32067327512956
10
12.500005438923836
20
-154.32067327512956
10
12.500005438923836
20
-155.52695987581083
10
16
20
-155.52695987581083
10
16
20
-158.62695987581085
10
12.500005438923836
20
-158.62695987581085
10
12.500005438923836
20
-159.82067327512956
10
10.000005438923836
20
-159.82067327512956
10
10.000005438923836
20
-158.62695987581085
10
0
20
-158.62695987581085
10
0
20
-164.48904776444266
10
370
20
-164.48904776444266
10
370
20
-158.62695987581085
10
360.00000543892384
20
-158.62695987581085
10
360.00000543892384
20
-159.82067327512956
10
357.50000543892384
20
-159.82067327512956
10
357.50000543892384
20
-158.62695987581085
10
355
20
-158.62695987581085
10
355
20
-155.52695987581083
10
357.50000543892384
20
-155.52695987581083
10
357.50000543892384
20
-154.32067327512956
10
360.00000543892384
20
-154.32067327512956
10
360.00000543892384
20
-155.52695987581083
10
370
20
-155.52695987581083
10
370
20
-82.544959875810889
10
360.00000543892384
20
-82.544959875810889
10
360.00000543892384
20
-83.72067327512957
10
357.50000543892384
20
-83.72067327512957
10
357.50000543892384
20
-82.544959875810889
10
355
20
-82.544959875810889
10
355
20
-79.489048956535569
10
357.50000543892384
20
-79.489048956535569
10
357.50000543892384
20
-78.220673275129556
10
360.00000543892384
20
-78.220673275129556
10
360.00000543892384
20
-79.489048956535569
10
370
20
-79.489048956535569
10
370
20
3.5370401241891081
10
360.00000543892384
20
3.5370401241891081
10
360.00000543892384
20
2.4793267248704343
10
357.50000543892384
20
2.4793267248704343
10
357.50000543892384
20
3.5370401241891081
10
355
20
3.5370401241891081
10
355
20
6.6370401241891086
10
357.50000543892384
20
6.6370401241891086
10
357.50000543892384
20
7.9793267248704414
10
360.00000543892384
20
7.9793267248704414
10
360.00000543892384
20
6.6370401241891086
10
370
20
6.6370401241891086
10
370
20
89.619040124189112
10
360.00000543892384
20
89.619040124189112
10
360.00000543892384
20
88.679326724870421
10
357.50000543892384
20
88.679326724870421
10
357.50000543892384
20
89.619040124189112
10
355
20
89.619040124189112
10
355
20
92.719040124189135
10
357.50000543892384
20
92.719040124189135
10
357.50000543892384
20
94.179326724870421
10
360.00000543892384
20
94.179326724870421
10
360.00000543892384
20
92.719040124189135
0
CIRCLE
5
103
100
AcDbEntity
8
0
100
AcDbCircle
10
235.43868156687148
20
-121.53428466306593
30
0
40
25
210
0
220
-0
230
1
0
CIRCLE
5
104
100
AcDbEntity
8
0
100
AcDbCircle
10
60.019770576174487
20
-119.48904776444267
30
0
40
24.999999999999993
210
0
220
-0
230
1
0
CIRCLE
5
105
100
AcDbEntity
8
0
100
AcDbCircle
10
60
20
-59.489047764442674
30
0
40
6.0000000000000053
210
0
220
-0
230
1
0
CIRCLE
5
106
100
AcDbEntity
8
0
100
AcDbCircle
10
35.644019369061098
20
-59.489047764442674
30
0
40
6.0000000000000009
210
0
220
-0
230
1
0
CIRCLE
5
107
100
AcDbEntity
8
0
100
AcDbCircle
10
285.15589052378544
20
123.5644018392597
30
0
40
1.5499999999999934
210
0
220
-0
230
1
0
CIRCLE
5
108
100
AcDbEntity
8
0
100
AcDbCircle
10
5.1558905237854447
20
123.5644018392597
30
0
40
1.5500000000000114
210
0
220
-0
230
1
0
CIRCLE
5
109
100
AcDbEntity
8
0
100
AcDbCircle
10
105.15589052378544
20
123.5644018392597
30
0
40
1.5500000000000025
210
0
220
-0
230
1
0
CIRCLE
5
110
100
AcDbEntity
8
0
100
AcDbCircle
10
205.15589052378544
20
123.5644018392597
30
0
40
1.549999999999998
210
0
220
-0
230
1
0
CIRCLE
5
111
100
AcDbEntity
8
0
100
AcDbCircle
10
285.15589052378544
20
-34.961223779413402
30
0
40
1.5500000000000114
210
0
220
-0
230
1
0
CIRCLE
5
112
100
AcDbEntity
8
0
100
AcDbCircle
10
105.15589052378544
20
-34.961223779413402
30
0
40
1.5499999999999934
210
0
220
-0
230
1
0
CIRCLE
5
113
100
AcDbEntity
8
0
100
AcDbCircle
10
205.15589052378544
20
-34.961223779413402
30
0
40
1.5500000000000114
210
0
220
-0
230
1
0
CIRCLE
5
114
100
AcDbEntity
8
0
100
AcDbCircle
10
205.15589052378544
20
3.6387762205866014
30
0
40
1.5500000000000114
210
0
220
-0
230
1
0
CIRCLE
5
115
100
AcDbEntity
8
0
100
AcDbCircle
10
105.15589052378544
20
3.6387762205866014
30
0
40
1.5499999999999934
210
0
220
-0
230
1
0
CIRCLE
5
116
100
AcDbEntity
8
0
100
AcDbCircle
10
285.15589052378544
20
3.6387762205866014
30
0
40
1.5500000000000114
210
0
220
-0
230
1
0
CIRCLE
5
117
100
AcDbEntity
8
0
100
AcDbCircle
10
20.644019369061102
20
-59.538140856110147
30
0
40
1.5499999999999934
210
0
220
-0
230
1
0
CIRCLE
5
118
100
AcDbEntity
8
0
100
AcDbCircle
10
75
20
-59.538140856110147
30
0
40
1.5499999999999934
210
0
220
-0
230
1
0
CIRCLE
5
119
100
AcDbEntity
8
0
100
AcDbCircle
10
179.44701666726303
20
-43.000000640749931
30
0
40
1.5500000000000114
210
0
220
-0
230
1
0
CIRCLE
5
120
100
AcDbEntity
8
0
100
AcDbCircle
10
359.44701666726303
20
-43.000000640749931
30
0
40
1.5500000000000114
210
0
220
-0
230
1
0
CIRCLE
5
121
100
AcDbEntity
8
0
100
AcDbCircle
10
288.92256782020303
20
-154.47739478191804
30
0
40
1.5500000000000114
210
0
220
0
230
1
0
CIRCLE
5
122
100
AcDbEntity
8
0
100
AcDbCircle
10
288.92256782020303
20
-62.5
30
0
40
1.5500000000000114
210
0
220
0
230
1
0
CIRCLE
5
123
100
AcDbEntity
8
0
100
AcDbCircle
10
15.155890523785436
20
-35.472176014970728
30
0
40
1.549999999999998
210
0
220
-0
230
1
0
CIRCLE
5
124
100
AcDbEntity
8
0
100
AcDbCircle
10
26.84485534642036
20
-15.740344136640463
30
0
40
10
210
0
220
-0
230
1
0
ENDSEC
0
SECTION
2
OBJECTS
0
DICTIONARY
5
C
100
AcDbDictionary
3
ACAD_GROUP
350
D
3
ACAD_MLINESTYLE
350
17
0
DICTIONARY
5
D
100
AcDbDictionary
0
DICTIONARY
5
1A
330
C
100
AcDbDictionary
0
DICTIONARY
5
17
100
AcDbDictionary
0
ENDSEC
0
EOF
