0
SECTION
2
HEADER
9
$INSUNITS
70
4
9
$ACADVER
1
AC1014
9
$HANDSEED
5
FFFF
0
ENDSEC
0
SECTION
2
TABLES
0
TABLE
2
VPORT
5
8
100
AcDbSymbolTable
0
ENDTAB
0
TABLE
2
LTYPE
5
5
100
AcDbSymbolTable
0
LTYPE
5
14
100
AcDbSymbolTableRecord
100
AcDbLinetypeTableRecord
2
BYBLOCK
70
0
0
LTYPE
5
15
100
AcDbSymbolTableRecord
100
AcDbLinetypeTableRecord
2
BYLAYER
70
0
0
ENDTAB
0
TABLE
2
LAYER
5
2
100
AcDbSymbolTable
70
2
0
LAYER
5
50
100
AcDbSymbolTableRecord
100
AcDbLayerTableRecord
2
0
70
0
6
CONTINUOUS
0
ENDTAB
0
TABLE
2
STYLE
5
3
100
AcDbSymbolTable
70
1
0
STYLE
5
11
100
AcDbSymbolTableRecord
100
AcDbTextStyleTableRecord
2
STANDARD
70
0
0
ENDTAB
0
TABLE
2
VIEW
5
6
100
AcDbSymbolTable
70
0
0
ENDTAB
0
TABLE
2
UCS
5
7
100
AcDbSymbolTable
70
0
0
ENDTAB
0
TABLE
2
APPID
5
9
100
AcDbSymbolTable
70
2
0
APPID
5
12
100
AcDbSymbolTableRecord
100
AcDbRegAppTableRecord
2
ACAD
70
0
0
ENDTAB
0
TABLE
2
DIMSTYLE
5
A
100
AcDbSymbolTable
70
1
0
ENDTAB
0
TABLE
2
BLOCK_RECORD
5
1
100
AcDbSymbolTable
70
1
0
BLOCK_RECORD
5
1F
100
AcDbSymbolTableRecord
100
AcDbBlockTableRecord
2
*MODEL_SPACE
0
BLOCK_RECORD
5
1B
100
AcDbSymbolTableRecord
100
AcDbBlockTableRecord
2
*PAPER_SPACE
0
ENDTAB
0
ENDSEC
0
SECTION
2
BLOCKS
0
BLOCK
5
20
100
AcDbEntity
100
AcDbBlockBegin
2
*MODEL_SPACE
0
ENDBLK
5
21
100
AcDbEntity
100
AcDbBlockEnd
0
BLOCK
5
1C
100
AcDbEntity
100
AcDbBlockBegin
2
*PAPER_SPACE
0
ENDBLK
5
1D
100
AcDbEntity
100
AcDbBlockEnd
0
ENDSEC
0
SECTION
2
ENTITIES
0
LWPOLYLINE
5
100
100
AcDbEntity
8
0
100
AcDbPolyline
90
52
70
1
43
0.0
10
-233.36160218464843
20
283.60589052378543
10
-243.08703980110889
20
283.60589052378543
10
-243.08703980110889
20
206.70589052378546
10
-233.36160218464843
20
206.70589052378546
10
-233.36160218464843
20
208.00298324171575
10
-231.06160218464848
20
208.00298324171575
10
-231.06160218464848
20
206.70589052378546
10
-228
20
206.70589052378546
10
-228
20
203.60589052378543
10
-231.06160218464848
20
203.60589052378543
10
-231.06160218464848
20
202.60298324171575
10
-233.36160218464843
20
202.60298324171575
10
-233.36160218464843
20
203.60589052378543
10
-243.08703980110889
20
203.60589052378543
10
-243.08703980110889
20
106.70589052378544
10
-233.36160218464843
20
106.70589052378544
10
-233.36160218464843
20
108.00298324171575
10
-231.06160218464848
20
108.00298324171575
10
-231.06160218464848
20
106.70589052378544
10
-228
20
106.70589052378544
10
-228
20
103.60589052378545
10
-231.06160218464848
20
103.60589052378545
10
-231.06160218464848
20
102.60298324171575
10
-233.36160218464843
20
102.60298324171575
10
-233.36160218464843
20
103.60589052378545
10
-243.08703980110889
20
103.60589052378545
10
-243.08703980110889
20
12.513599742802111
10
-242.5
20
12.513599742802111
10
-242.50000000000003
20
12.500005438923836
10
-243.08703980110889
20
12.500005438923836
10
-243.08703980110889
20
0
10
-121.97403980110893
20
0
10
-121.97403980110893
20
15.000000000000007
10
-115.47403980110893
20
15.000000000000009
10
-115.47403980110893
20
45.000000000000007
10
-121.97403980110893
20
45.000000000000007
10
-121.97403980110893
20
255
10
-115.47403980110893
20
255
10
-115.47403980110893
20
285
10
-121.97403980110893
20
285
10
-121.97403980110893
20
300
10
-243.08703980110889
20
300
10
-243.08703980110889
20
286.70589052378546
10
-233.36160218464843
20
286.70589052378546
10
-233.36160218464843
20
288.00298324171575
10
-231.06160218464848
20
288.00298324171575
10
-231.06160218464848
20
286.70589052378546
10
-228
20
286.70589052378546
10
-228
20
283.60589052378543
10
-231.06160218464848
20
283.60589052378543
10
-231.06160218464848
20
282.60298324171578
10
-233.36160218464843
20
282.60298324171578
0
ENDSEC
0
SECTION
2
OBJECTS
0
DICTIONARY
5
C
100
AcDbDictionary
3
ACAD_GROUP
350
D
3
ACAD_MLINESTYLE
350
17
0
DICTIONARY
5
D
100
AcDbDictionary
0
DICTIONARY
5
1A
330
C
100
AcDbDictionary
0
DICTIONARY
5
17
100
AcDbDictionary
0
ENDSEC
0
EOF
