0
SECTION
2
HEADER
9
$INSUNITS
70
4
9
$ACADVER
1
AC1014
9
$HANDSEED
5
FFFF
0
ENDSEC
0
SECTION
2
TABLES
0
TABLE
2
VPORT
5
8
100
AcDbSymbolTable
0
ENDTAB
0
TABLE
2
LTYPE
5
5
100
AcDbSymbolTable
0
LTYPE
5
14
100
AcDbSymbolTableRecord
100
AcDbLinetypeTableRecord
2
BYBLOCK
70
0
0
LTYPE
5
15
100
AcDbSymbolTableRecord
100
AcDbLinetypeTableRecord
2
BYLAYER
70
0
0
ENDTAB
0
TABLE
2
LAYER
5
2
100
AcDbSymbolTable
70
2
0
LAYER
5
50
100
AcDbSymbolTableRecord
100
AcDbLayerTableRecord
2
0
70
0
6
CONTINUOUS
0
ENDTAB
0
TABLE
2
STYLE
5
3
100
AcDbSymbolTable
70
1
0
STYLE
5
11
100
AcDbSymbolTableRecord
100
AcDbTextStyleTableRecord
2
STANDARD
70
0
0
ENDTAB
0
TABLE
2
VIEW
5
6
100
AcDbSymbolTable
70
0
0
ENDTAB
0
TABLE
2
UCS
5
7
100
AcDbSymbolTable
70
0
0
ENDTAB
0
TABLE
2
APPID
5
9
100
AcDbSymbolTable
70
2
0
APPID
5
12
100
AcDbSymbolTableRecord
100
AcDbRegAppTableRecord
2
ACAD
70
0
0
ENDTAB
0
TABLE
2
DIMSTYLE
5
A
100
AcDbSymbolTable
70
1
0
ENDTAB
0
TABLE
2
BLOCK_RECORD
5
1
100
AcDbSymbolTable
70
1
0
BLOCK_RECORD
5
1F
100
AcDbSymbolTableRecord
100
AcDbBlockTableRecord
2
*MODEL_SPACE
0
BLOCK_RECORD
5
1B
100
AcDbSymbolTableRecord
100
AcDbBlockTableRecord
2
*PAPER_SPACE
0
ENDTAB
0
ENDSEC
0
SECTION
2
BLOCKS
0
BLOCK
5
20
100
AcDbEntity
100
AcDbBlockBegin
2
*MODEL_SPACE
0
ENDBLK
5
21
100
AcDbEntity
100
AcDbBlockEnd
0
BLOCK
5
1C
100
AcDbEntity
100
AcDbBlockBegin
2
*PAPER_SPACE
0
ENDBLK
5
1D
100
AcDbEntity
100
AcDbBlockEnd
0
ENDSEC
0
SECTION
2
ENTITIES
0
LWPOLYLINE
5
100
100
AcDbEntity
8
0
100
AcDbPolyline
90
8
70
1
43
0.0
10
248.68246303322366
20
-28.922235606793059
10
248.68246303322366
20
-5.1727066423658563
42
-0.40239108933947143
10
250.08131317291065
20
-3.8294365877019558
10
250.33805259394717
20
-3.8294365877019789
42
-0.41421356237309043
10
251.7380525939472
20
-5.2294365877019624
10
251.7380525939472
20
-28.92223560679307
42
-0.41421356237308393
10
250.33805259394717
20
-30.3222356067931
10
250.08246303322366
20
-30.322235606793065
42
-0.41421356237308016
0
LWPOLYLINE
5
101
100
AcDbEntity
8
0
100
AcDbPolyline
90
74
70
1
43
0.0
10
246.50602870886922
20
-3.5043921511545575
10
246.50602870886917
20
-32.458000000000013
10
300
20
-32.457999999999998
10
300
20
116.00000000000001
10
300.00023640676363
20
116
10
300.00023640676363
20
120
10
300
20
120
10
300
20
260
10
246.66123640676361
20
260
10
246.66123640676361
20
258
10
216.66123640676361
20
258
10
216.66123640676361
20
260
10
161.66123640676361
20
260
10
161.66123640676361
20
258
10
131.66123640676361
20
258
10
131.66123640676361
20
260
10
76.661236406763621
20
260
10
76.661236406763621
20
258
10
46.661236406763607
20
258
10
46.661236406763607
20
260
10
0
20
260
10
0
20
249.37208788863182
10
10.000005438923836
20
249.37208788863182
10
10.000005438923836
20
250.6483546708987
10
12.500005438923836
20
250.6483546708987
10
12.500005438923836
20
249.37208788863182
10
15
20
249.37208788863182
10
15
20
246.2720878886318
10
12.500005438923836
20
246.2720878886318
10
12.500005438923836
20
245.14835467089875
10
10.000005438923836
20
245.14835467089875
10
10.000005438923836
20
246.2720878886318
10
0
20
246.2720878886318
10
0
20
178.2900878886318
10
10.000005438923836
20
178.2900878886318
10
10.000005438923836
20
179.76837448931315
10
12.500005438923836
20
179.76837448931315
10
12.500005438923836
20
178.2900878886318
10
15
20
178.2900878886318
10
15
20
175.19008788863178
10
12.500005438923836
20
175.19008788863178
10
12.500005438923836
20
174.26837448931309
10
10.000005438923836
20
174.26837448931309
10
10.000005438923836
20
175.19008788863178
10
0
20
175.19008788863178
10
0
20
92.208087888631809
10
10.000005438923836
20
92.208087888631809
10
10.000005438923836
20
93.668374489313095
10
12.500005438923836
20
93.668374489313095
10
12.500005438923836
20
92.208087888631809
10
15
20
92.208087888631809
10
15
20
89.108087888631786
10
12.500005438923836
20
89.108087888631786
10
12.500005438923836
20
88.168374489313095
10
10.000005438923836
20
88.168374489313095
10
10.000005438923836
20
89.108087888631786
10
0
20
89.108087888631786
10
0
20
5.999999999999801
10
10.000005438923836
20
5.9999999999997975
10
10.000005438923836
20
7.4683744893131188
10
12.500005438923836
20
7.4683744893131188
10
12.500005438923836
20
5.9999999999997975
10
45.000000000000007
20
5.9999999999997975
10
45.000000000000007
20
-2.0317081350640365e-13
10
15.000000000000009
20
-2.0317081350640365e-13
10
15.000000000000009
20
3.0260878886317855
10
12.500005438923836
20
3.0260878886317855
10
12.500005438923836
20
1.9683744893131117
10
10.000005438923836
20
1.9683744893131117
10
10.000005438923836
20
3.0260878886317855
10
0
20
3.0260878886317855
10
0
20
-32.457999999999998
10
206.17480113459118
20
-32.458000000000006
10
206.17480113459118
20
-3.5043921511545539
0
LWPOLYLINE
5
102
100
AcDbEntity
8
0
100
AcDbPolyline
90
8
70
1
43
0.0
10
202.19897091552264
20
-3.8294365877019625
10
202.45571033655915
20
-3.8294365877019789
42
-0.41421356237309043
10
203.85571033655913
20
-5.2294365877019624
10
203.85571033655913
20
-28.92223560679307
42
-0.41421356237308393
10
202.45571033655915
20
-30.3222356067931
10
202.20012077583561
20
-30.322235606793065
42
-0.41421356237308016
10
200.80012077583561
20
-28.922235606793059
10
200.80012077583561
20
-5.1727066423658563
42
-0.40239108933947143
0
LWPOLYLINE
5
103
100
AcDbEntity
8
0
100
AcDbPolyline
90
4
70
1
43
0.0
10
58
20
117
10
48
20
117
10
48
20
120
10
58
20
120
0
LWPOLYLINE
5
104
100
AcDbEntity
8
0
100
AcDbPolyline
90
4
70
1
43
0.0
10
95
20
120
10
65
20
120
10
65
20
126.00000000000001
10
95
20
126.00000000000001
0
LWPOLYLINE
5
105
100
AcDbEntity
8
0
100
AcDbPolyline
90
4
70
1
43
0.0
10
255
20
5.9999999999997975
10
285
20
5.9999999999997975
10
285
20
1.4432899320127035e-14
10
255
20
1.4432899320127035e-14
0
LWPOLYLINE
5
106
100
AcDbEntity
8
0
100
AcDbPolyline
90
4
70
1
43
0.0
10
235
20
0
10
205
20
0
10
205
20
6.0000000000000009
10
235
20
6.0000000000000009
0
LWPOLYLINE
5
107
100
AcDbEntity
8
0
100
AcDbPolyline
90
4
70
1
43
0.0
10
65.000000000000014
20
5.9999999999999396
10
95
20
5.9999999999999396
10
95
20
-6.106226635438361e-14
10
65.000000000000014
20
-6.106226635438361e-14
0
LWPOLYLINE
5
108
100
AcDbEntity
8
0
100
AcDbPolyline
90
4
70
1
43
0.0
10
45
20
120
10
15
20
120
10
15
20
126.00000000000001
10
45
20
126.00000000000001
0
LWPOLYLINE
5
109
100
AcDbEntity
8
0
100
AcDbPolyline
90
4
70
1
43
0.0
10
285
20
120
10
255
20
120
10
255
20
126.00000000000001
10
285
20
126.00000000000001
0
LWPOLYLINE
5
110
100
AcDbEntity
8
0
100
AcDbPolyline
90
4
70
1
43
0.0
10
205
20
126.50000000000003
10
235
20
126.50000000000003
10
235
20
120
10
205
20
120
0
LWPOLYLINE
5
111
100
AcDbEntity
8
0
100
AcDbPolyline
90
4
70
1
43
0.0
10
155
20
120
10
155
20
117
10
145
20
117
10
145
20
120
0
ENDSEC
0
SECTION
2
OBJECTS
0
DICTIONARY
5
C
100
AcDbDictionary
3
ACAD_GROUP
350
D
3
ACAD_MLINESTYLE
350
17
0
DICTIONARY
5
D
100
AcDbDictionary
0
DICTIONARY
5
1A
330
C
100
AcDbDictionary
0
DICTIONARY
5
17
100
AcDbDictionary
0
ENDSEC
0
EOF
