0
SECTION
2
HEADER
9
$INSUNITS
70
4
9
$ACADVER
1
AC1014
9
$HANDSEED
5
FFFF
0
ENDSEC
0
SECTION
2
TABLES
0
TABLE
2
VPORT
5
8
100
AcDbSymbolTable
0
ENDTAB
0
TABLE
2
LTYPE
5
5
100
AcDbSymbolTable
0
LTYPE
5
14
100
AcDbSymbolTableRecord
100
AcDbLinetypeTableRecord
2
BYBLOCK
70
0
0
LTYPE
5
15
100
AcDbSymbolTableRecord
100
AcDbLinetypeTableRecord
2
BYLAYER
70
0
0
ENDTAB
0
TABLE
2
LAYER
5
2
100
AcDbSymbolTable
70
2
0
LAYER
5
50
100
AcDbSymbolTableRecord
100
AcDbLayerTableRecord
2
0
70
0
6
CONTINUOUS
0
ENDTAB
0
TABLE
2
STYLE
5
3
100
AcDbSymbolTable
70
1
0
STYLE
5
11
100
AcDbSymbolTableRecord
100
AcDbTextStyleTableRecord
2
STANDARD
70
0
0
ENDTAB
0
TABLE
2
VIEW
5
6
100
AcDbSymbolTable
70
0
0
ENDTAB
0
TABLE
2
UCS
5
7
100
AcDbSymbolTable
70
0
0
ENDTAB
0
TABLE
2
APPID
5
9
100
AcDbSymbolTable
70
2
0
APPID
5
12
100
AcDbSymbolTableRecord
100
AcDbRegAppTableRecord
2
ACAD
70
0
0
ENDTAB
0
TABLE
2
DIMSTYLE
5
A
100
AcDbSymbolTable
70
1
0
ENDTAB
0
TABLE
2
BLOCK_RECORD
5
1
100
AcDbSymbolTable
70
1
0
BLOCK_RECORD
5
1F
100
AcDbSymbolTableRecord
100
AcDbBlockTableRecord
2
*MODEL_SPACE
0
BLOCK_RECORD
5
1B
100
AcDbSymbolTableRecord
100
AcDbBlockTableRecord
2
*PAPER_SPACE
0
ENDTAB
0
ENDSEC
0
SECTION
2
BLOCKS
0
BLOCK
5
20
100
AcDbEntity
100
AcDbBlockBegin
2
*MODEL_SPACE
0
ENDBLK
5
21
100
AcDbEntity
100
AcDbBlockEnd
0
BLOCK
5
1C
100
AcDbEntity
100
AcDbBlockBegin
2
*PAPER_SPACE
0
ENDBLK
5
1D
100
AcDbEntity
100
AcDbBlockEnd
0
ENDSEC
0
SECTION
2
ENTITIES
0
CIRCLE
5
100
100
AcDbEntity
8
0
100
AcDbCircle
10
-15.155890523785436
20
-35.472176014970728
30
0
40
1.549999999999998
210
0
220
0
230
1
0
CIRCLE
5
101
100
AcDbEntity
8
0
100
AcDbCircle
10
-288.92256782020303
20
-62.5
30
0
40
1.5500000000000114
210
0
220
0
230
1
0
CIRCLE
5
102
100
AcDbEntity
8
0
100
AcDbCircle
10
-288.92256782020303
20
-154.47739478191804
30
0
40
1.5500000000000114
210
0
220
0
230
1
0
CIRCLE
5
103
100
AcDbEntity
8
0
100
AcDbCircle
10
-359.44701666726303
20
-43.000000640749931
30
0
40
1.5500000000000114
210
0
220
-0
230
1
0
CIRCLE
5
104
100
AcDbEntity
8
0
100
AcDbCircle
10
-179.44701666726303
20
-43.000000640749931
30
0
40
1.5500000000000114
210
0
220
-0
230
1
0
CIRCLE
5
105
100
AcDbEntity
8
0
100
AcDbCircle
10
-285.15589052378544
20
123.05344960370238
30
0
40
1.5500000000000114
210
0
220
0
230
1
0
CIRCLE
5
106
100
AcDbEntity
8
0
100
AcDbCircle
10
-285.15589052378544
20
-35.472176014970728
30
0
40
1.5500000000000114
210
0
220
0
230
1
0
CIRCLE
5
107
100
AcDbEntity
8
0
100
AcDbCircle
10
-5.1558905237854358
20
123.05344960370238
30
0
40
1.549999999999998
210
0
220
0
230
1
0
CIRCLE
5
108
100
AcDbEntity
8
0
100
AcDbCircle
10
-205.15589052378544
20
123.05344960370238
30
0
40
1.5500000000000114
210
0
220
0
230
1
0
CIRCLE
5
109
100
AcDbEntity
8
0
100
AcDbCircle
10
-105.15589052378544
20
-35.472176014970728
30
0
40
1.5499999999999934
210
0
220
0
230
1
0
CIRCLE
5
110
100
AcDbEntity
8
0
100
AcDbCircle
10
-205.15589052378544
20
-35.472176014970728
30
0
40
1.5500000000000114
210
0
220
0
230
1
0
CIRCLE
5
111
100
AcDbEntity
8
0
100
AcDbCircle
10
-105.15589052378544
20
123.05344960370238
30
0
40
1.5499999999999934
210
0
220
0
230
1
0
CIRCLE
5
112
100
AcDbEntity
8
0
100
AcDbCircle
10
-285.15589052378544
20
3.1278239850292788
30
0
40
1.5500000000000114
210
0
220
0
230
1
0
CIRCLE
5
113
100
AcDbEntity
8
0
100
AcDbCircle
10
-205.15589052378544
20
3.1278239850292788
30
0
40
1.5500000000000114
210
0
220
0
230
1
0
CIRCLE
5
114
100
AcDbEntity
8
0
100
AcDbCircle
10
-105.15589052378544
20
3.1278239850292788
30
0
40
1.5499999999999934
210
0
220
0
230
1
0
LWPOLYLINE
5
115
100
AcDbEntity
8
0
100
AcDbPolyline
90
172
70
1
43
0.0
10
-10.013599742802128
20
-84.231625510686882
10
-10.013599742802127
20
-84.237168980366434
10
-12.513599742802107
20
-84.237168980366434
10
-12.513599742802107
20
-82.894882379685114
10
-15.013599891813698
20
-82.894882379685114
10
-15.013599891813703
20
-79.768794535756825
10
-12.513599742802107
20
-79.768794535756825
10
-12.513599742802107
20
-78.737168980366462
10
-12.500005438923836
20
-78.737168980366462
10
-12.500005438923836
20
-78.731625510686882
10
-10.000005438923836
20
-78.731625510686882
10
-10.000005438923836
20
-79.79488237968512
10
0
20
-79.79488237968512
10
0
20
3.3109887366526358
10
-10.000005438923836
20
3.3109887366526358
10
-10.000005438923836
20
1.9683744893131205
10
-12.500005438923836
20
1.9683744893131205
10
-12.500005438923836
20
1.9687021359713164
10
-12.513599742802111
20
1.9687021359713164
10
-12.513599742802111
20
3.3109887366526358
10
-15.013599891813707
20
3.3109887366526358
10
-15.013599891813707
20
6.4370765805808539
10
-12.513599742802111
20
6.4370765805808539
10
-12.513599742802111
20
7.4687021359712169
10
-10.01359974280213
20
7.4687021359712169
10
-10.013599742802128
20
7.4683744893131276
10
-10.000005438923836
20
7.4683744893131276
10
-10.000005438923836
20
6.4109887366525875
10
0
20
6.4109887366525875
10
0
20
89.54255124596699
10
-10.000005438923836
20
89.54255124596699
10
-10.000005438923836
20
88.168374489313095
10
-12.500005438923836
20
88.168374489313095
10
-12.500005438923836
20
88.200264645285671
10
-12.513599742802112
20
88.200264645285671
10
-12.513599742802112
20
89.54255124596699
10
-15.013599891813707
20
89.54255124596699
10
-15.013599891813707
20
92.668639089895208
10
-12.513599742802112
20
92.668639089895208
10
-12.513599742802114
20
93.700264645285642
10
-10.013599742802132
20
93.700264645285642
10
-10.013599742802128
20
93.668374489313081
10
-10.000005438923836
20
93.668374489313095
10
-10.000005438923836
20
92.642551245966942
10
0
20
92.642551245966942
10
0
20
175.63244698526324
10
-10.000005438923836
20
175.63244698526324
10
-10.000005438923836
20
174.26837448931309
10
-12.500005438923836
20
174.26837448931309
10
-12.500005438923836
20
174.29016038458201
10
-12.513599742802118
20
174.29016038458201
10
-12.513599742802114
20
175.63244698526324
10
-15.013599891813712
20
175.63244698526324
10
-15.013599891813712
20
178.7585348291916
10
-12.513599742802118
20
178.7585348291916
10
-12.513599742802118
20
179.7901603845819
10
-10.013599742802137
20
179.7901603845819
10
-10.013599742802128
20
179.76837448931315
10
-10.000005438923836
20
179.76837448931315
10
-10.000005438923836
20
178.73244698526327
10
0
20
178.73244698526327
10
0
20
256.51590775535453
10
-9.9794674638525578
20
256.51590775535453
10
-9.9794674638525578
20
255.17362115467321
10
-10.000005438923836
20
255.17362115467321
10
-10.000005438923836
20
255.16837448931309
10
-12.500005438923836
20
255.16837448931309
10
-12.500005438923836
20
256.51590775535453
10
-14.979467612864161
20
256.51590775535453
10
-14.979467612864161
20
259.64199559928284
10
-12.500005438923836
20
259.64199559928284
10
-12.500005438923836
20
260.66837448931307
10
-12.479467463852565
20
260.66837448931312
10
-12.479467463852554
20
260.67362115467324
10
-9.9794674638525578
20
260.67362115467324
10
-9.9794674638525578
20
259.61590775535456
10
0
20
259.61590775535456
10
0
20
266.5
10
-370
20
266.5
10
-370
20
259.33334954088934
10
-360.00000543892384
20
259.33334954088934
10
-360.00000543892384
20
260.66837448931307
10
-357.50000543892384
20
260.66837448931307
10
-357.50000543892384
20
259.33334954088934
10
-355.00000528991222
20
259.33334954088934
10
-355.00000528991222
20
256.20726169696104
10
-357.50000543892384
20
256.20726169696104
10
-357.50000543892384
20
255.16837448931309
10
-360.00000543892384
20
255.16837448931309
10
-360.00000543892384
20
256.23334954088932
10
-370
20
256.23334954088932
10
-370
20
178.41253370768652
10
-360.00000543892384
20
178.41253370768652
10
-360.00000543892384
20
179.76837448931315
10
-357.50000543892384
20
179.76837448931315
10
-357.50000543892384
20
178.41253370768652
10
-355.00000528991222
20
178.41253370768652
10
-355.00000528991222
20
175.28644586375819
10
-357.50000543892384
20
175.28644586375819
10
-357.50000543892384
20
174.26837448931309
10
-360.00000543892384
20
174.26837448931309
10
-360.00000543892384
20
175.3125337076865
10
-370
20
175.3125337076865
10
-370
20
92.322655619736452
10
-360.00000543892384
20
92.322655619736452
10
-360.00000543892384
20
93.668374489313095
10
-357.50000543892384
20
93.668374489313095
10
-357.50000543892384
20
92.322655619736452
10
-355.00000528991222
20
92.322655619736452
10
-355.00000528991222
20
89.19656777580812
10
-357.50000543892384
20
89.19656777580812
10
-357.50000543892384
20
88.168374489313095
10
-360.00000543892384
20
88.168374489313095
10
-360.00000543892384
20
89.222655619736429
10
-370
20
89.222655619736429
10
-370
20
6.1260878886318082
10
-360.00000543892384
20
6.1260878886318082
10
-360.00000543892384
20
7.4683744893131276
10
-357.50000543892384
20
7.4683744893131276
10
-357.50000543892384
20
6.1260878886318082
10
-355.00000528991222
20
6.1260878886318082
10
-355.00000528991222
20
3.0000000447034836
10
-357.50000543892384
20
3.0000000447034836
10
-357.50000543892384
20
1.9683744893131205
10
-360.00000543892384
20
1.9683744893131205
10
-360.00000543892384
20
3.0260878886317855
10
-370
20
3.0260878886317855
10
-370
20
-80.073912111368202
10
-360.00000543892384
20
-80.073912111368202
10
-360.00000543892384
20
-78.731625510686882
10
-357.50000543892384
20
-78.731625510686882
10
-357.50000543892384
20
-80.073912111368202
10
-355.00000528991222
20
-80.073912111368202
10
-355.00000528991222
20
-83.199999955296562
10
-357.50000543892384
20
-83.199999955296562
10
-357.50000543892384
20
-84.231625510686854
10
-360.00000543892384
20
-84.231625510686854
10
-360.00000543892384
20
-83.173912111368224
10
-370
20
-83.173912111368224
10
-370
20
-156.19252576602923
10
-360.00000543892384
20
-156.19252576602923
10
-360.00000543892384
20
-154.83162551068688
10
-357.50000543892384
20
-154.83162551068688
10
-357.50000543892384
20
-156.19252576602923
10
-355.00000528991222
20
-156.19252576602923
10
-355.00000528991222
20
-159.31861360995754
10
-357.50000543892384
20
-159.31861360995754
10
-357.50000543892384
20
-160.33162551068685
10
-360.00000543892384
20
-160.33162551068685
10
-360.00000543892384
20
-159.29252576602926
10
-370
20
-159.29252576602926
10
-370
20
-171.50000000000003
10
0
20
-171.50000000000003
10
0
20
-158.97261248844995
10
-10.000005438923836
20
-158.97261248844993
10
-10.000005438923836
20
-160.33162551068685
10
-12.500005438923836
20
-160.33162551068685
10
-12.500005438923836
20
-160.31489908913127
10
-12.513599742802104
20
-160.31489908913127
10
-12.513599742802104
20
-158.97261248844995
10
-15.013599891813698
20
-158.97261248844995
10
-15.013599891813698
20
-155.84652464452165
10
-12.513599742802102
20
-155.84652464452165
10
-12.513599742802102
20
-154.8148990891313
10
-10.013599742802121
20
-154.8148990891313
10
-10.013599742802128
20
-154.83162551068688
10
-10.000005438923836
20
-154.83162551068688
10
-10.000005438923836
20
-155.87261248844999
10
0
20
-155.87261248844996
10
0
20
-82.894882379685114
10
-10.000005438923836
20
-82.894882379685114
10
-10.000005438923836
20
-84.231625510686854
0
ENDSEC
0
SECTION
2
OBJECTS
0
DICTIONARY
5
C
100
AcDbDictionary
3
ACAD_GROUP
350
D
3
ACAD_MLINESTYLE
350
17
0
DICTIONARY
5
D
100
AcDbDictionary
0
DICTIONARY
5
1A
330
C
100
AcDbDictionary
0
DICTIONARY
5
17
100
AcDbDictionary
0
ENDSEC
0
EOF
