0
SECTION
2
HEADER
9
$INSUNITS
70
4
9
$ACADVER
1
AC1014
9
$HANDSEED
5
FFFF
0
ENDSEC
0
SECTION
2
TABLES
0
TABLE
2
VPORT
5
8
100
AcDbSymbolTable
0
ENDTAB
0
TABLE
2
LTYPE
5
5
100
AcDbSymbolTable
0
LTYPE
5
14
100
AcDbSymbolTableRecord
100
AcDbLinetypeTableRecord
2
BYBLOCK
70
0
0
LTYPE
5
15
100
AcDbSymbolTableRecord
100
AcDbLinetypeTableRecord
2
BYLAYER
70
0
0
ENDTAB
0
TABLE
2
LAYER
5
2
100
AcDbSymbolTable
70
2
0
LAYER
5
50
100
AcDbSymbolTableRecord
100
AcDbLayerTableRecord
2
0
70
0
6
CONTINUOUS
0
ENDTAB
0
TABLE
2
STYLE
5
3
100
AcDbSymbolTable
70
1
0
STYLE
5
11
100
AcDbSymbolTableRecord
100
AcDbTextStyleTableRecord
2
STANDARD
70
0
0
ENDTAB
0
TABLE
2
VIEW
5
6
100
AcDbSymbolTable
70
0
0
ENDTAB
0
TABLE
2
UCS
5
7
100
AcDbSymbolTable
70
0
0
ENDTAB
0
TABLE
2
APPID
5
9
100
AcDbSymbolTable
70
2
0
APPID
5
12
100
AcDbSymbolTableRecord
100
AcDbRegAppTableRecord
2
ACAD
70
0
0
ENDTAB
0
TABLE
2
DIMSTYLE
5
A
100
AcDbSymbolTable
70
1
0
ENDTAB
0
TABLE
2
BLOCK_RECORD
5
1
100
AcDbSymbolTable
70
1
0
BLOCK_RECORD
5
1F
100
AcDbSymbolTableRecord
100
AcDbBlockTableRecord
2
*MODEL_SPACE
0
BLOCK_RECORD
5
1B
100
AcDbSymbolTableRecord
100
AcDbBlockTableRecord
2
*PAPER_SPACE
0
ENDTAB
0
ENDSEC
0
SECTION
2
BLOCKS
0
BLOCK
5
20
100
AcDbEntity
100
AcDbBlockBegin
2
*MODEL_SPACE
0
ENDBLK
5
21
100
AcDbEntity
100
AcDbBlockEnd
0
BLOCK
5
1C
100
AcDbEntity
100
AcDbBlockBegin
2
*PAPER_SPACE
0
ENDBLK
5
1D
100
AcDbEntity
100
AcDbBlockEnd
0
ENDSEC
0
SECTION
2
ENTITIES
0
LWPOLYLINE
5
100
100
AcDbEntity
8
0
100
AcDbPolyline
90
4
70
1
43
0.0
10
122.08884540155157
20
268.60921077462427
10
142.08884540155157
20
268.60921077462427
10
142.08884540155157
20
265.20442730870025
10
122.08884540155157
20
265.20442730870025
0
LWPOLYLINE
5
101
100
AcDbEntity
8
0
100
AcDbPolyline
90
4
70
1
43
0.0
10
122.08884540155157
20
256.49964384277627
10
142.08884540155157
20
256.49964384277627
10
142.08884540155157
20
253.0948603768523
10
122.08884540155157
20
253.0948603768523
0
LWPOLYLINE
5
102
100
AcDbEntity
8
0
100
AcDbPolyline
90
4
70
1
43
0.0
10
122.08884540155157
20
244.39964384277627
10
142.08884540155157
20
244.39964384277627
10
142.08884540155157
20
240.99486037685227
10
122.08884540155157
20
240.99486037685227
0
LWPOLYLINE
5
103
100
AcDbEntity
8
0
100
AcDbPolyline
90
4
70
1
43
0.0
10
122.08884540155157
20
232.34486037685227
10
142.08884540155157
20
232.34486037685227
10
142.08884540155157
20
228.88561406872549
10
122.08884540155157
20
228.88561406872549
0
LWPOLYLINE
5
104
100
AcDbEntity
8
0
100
AcDbPolyline
90
4
70
1
43
0.0
10
122.08884540155157
20
220.22636776059866
10
142.08884540155157
20
220.22636776059866
10
142.08884540155157
20
216.76712145247188
10
122.08884540155157
20
216.76712145247188
0
LWPOLYLINE
5
105
100
AcDbEntity
8
0
100
AcDbPolyline
90
4
70
1
43
0.0
10
122.08884540155157
20
208.02636776059867
10
142.08884540155157
20
208.02636776059867
10
142.08884540155157
20
204.56712145247189
10
122.08884540155157
20
204.56712145247189
0
LWPOLYLINE
5
106
100
AcDbEntity
8
0
100
AcDbPolyline
90
4
70
1
43
0.0
10
122.08884540155157
20
195.82636776059869
10
142.08884540155157
20
195.82636776059869
10
142.08884540155157
20
192.36712145247191
10
122.08884540155157
20
192.36712145247191
0
LWPOLYLINE
5
107
100
AcDbEntity
8
0
100
AcDbPolyline
90
4
70
1
43
0.0
10
122.08884540155157
20
183.6263677605987
10
142.08884540155157
20
183.6263677605987
10
142.08884540155157
20
180.16712145247192
10
122.08884540155157
20
180.16712145247192
0
LWPOLYLINE
5
108
100
AcDbEntity
8
0
100
AcDbPolyline
90
4
70
1
43
0.0
10
122.08884540155157
20
171.42636776059871
10
142.08884540155157
20
171.42636776059871
10
142.08884540155157
20
167.96712145247193
10
122.08884540155157
20
167.96712145247193
0
LWPOLYLINE
5
109
100
AcDbEntity
8
0
100
AcDbPolyline
90
4
70
1
43
0.0
10
122.08884540155157
20
165.32636776059871
10
142.08884540155157
20
165.32636776059871
10
142.08884540155157
20
161.86712145247191
10
122.08884540155157
20
161.86712145247191
0
LWPOLYLINE
5
110
100
AcDbEntity
8
0
100
AcDbPolyline
90
4
70
1
43
0.0
10
122.08884540155157
20
177.5263677605987
10
142.08884540155157
20
177.5263677605987
10
142.08884540155157
20
174.06712145247189
10
122.08884540155157
20
174.06712145247189
0
LWPOLYLINE
5
111
100
AcDbEntity
8
0
100
AcDbPolyline
90
4
70
1
43
0.0
10
122.08884540155157
20
189.72636776059869
10
142.08884540155157
20
189.72636776059869
10
142.08884540155157
20
186.26712145247188
10
122.08884540155157
20
186.26712145247188
0
LWPOLYLINE
5
112
100
AcDbEntity
8
0
100
AcDbPolyline
90
4
70
1
43
0.0
10
122.08884540155157
20
201.92636776059868
10
142.08884540155157
20
201.92636776059868
10
142.08884540155157
20
198.46712145247187
10
122.08884540155157
20
198.46712145247187
0
LWPOLYLINE
5
113
100
AcDbEntity
8
0
100
AcDbPolyline
90
4
70
1
43
0.0
10
122.08884540155157
20
214.12636776059867
10
142.08884540155157
20
214.12636776059867
10
142.08884540155157
20
210.66712145247186
10
122.08884540155157
20
210.66712145247186
0
LWPOLYLINE
5
114
100
AcDbEntity
8
0
100
AcDbPolyline
90
4
70
1
43
0.0
10
122.08884540155157
20
226.28561406872547
10
142.08884540155157
20
226.28561406872547
10
142.08884540155157
20
222.82636776059866
10
122.08884540155157
20
222.82636776059866
0
LWPOLYLINE
5
115
100
AcDbEntity
8
0
100
AcDbPolyline
90
4
70
1
43
0.0
10
122.08884540155157
20
238.39964384277624
10
142.08884540155157
20
238.39964384277624
10
142.08884540155157
20
234.9493232190552
10
122.08884540155157
20
234.9493232190552
0
LWPOLYLINE
5
116
100
AcDbEntity
8
0
100
AcDbPolyline
90
4
70
1
43
0.0
10
122.08884540155157
20
250.44964384277625
10
142.08884540155157
20
250.44964384277625
10
142.08884540155157
20
247.04486037685228
10
122.08884540155157
20
247.04486037685228
0
LWPOLYLINE
5
117
100
AcDbEntity
8
0
100
AcDbPolyline
90
4
70
1
43
0.0
10
122.08884540155157
20
262.55442730870027
10
142.08884540155157
20
262.55442730870027
10
142.08884540155157
20
259.1496438427763
10
122.08884540155157
20
259.1496438427763
0
LWPOLYLINE
5
118
100
AcDbEntity
8
0
100
AcDbPolyline
90
4
70
1
43
0.0
10
122.08884540155157
20
274.66399424054822
10
142.08884540155157
20
274.66399424054822
10
142.08884540155157
20
271.25921077462425
10
122.08884540155157
20
271.25921077462425
0
LWPOLYLINE
5
119
100
AcDbEntity
8
0
100
AcDbPolyline
90
4
70
1
43
0.0
10
237.08167667663946
20
100
10
237.08167667663946
20
300
10
5.4686766766394612
20
300
10
5.4686766766394559
20
100
0
ENDSEC
0
SECTION
2
OBJECTS
0
DICTIONARY
5
C
100
AcDbDictionary
3
ACAD_GROUP
350
D
3
ACAD_MLINESTYLE
350
17
0
DICTIONARY
5
D
100
AcDbDictionary
0
DICTIONARY
5
1A
330
C
100
AcDbDictionary
0
DICTIONARY
5
17
100
AcDbDictionary
0
ENDSEC
0
EOF
